<?xml version="1.0" encoding="iso-8859-1"?>
<!-- Generator: Adobe Illustrator 16.0.0, SVG Export Plug-In . SVG Version: 6.00 Build 0)  -->
<!DOCTYPE svg PUBLIC "-//W3C//DTD SVG 1.1//EN" "http://www.w3.org/Graphics/SVG/1.1/DTD/svg11.dtd">
<svg version="1.1" id="Layer_1" xmlns="http://www.w3.org/2000/svg" xmlns:xlink="http://www.w3.org/1999/xlink" x="0px" y="0px"
	 width="64px" height="55px" viewBox="0 0 64 55" style="enable-background:new 0 0 64 55;" xml:space="preserve">
<path d="M56.5,15h-49C3.358,15,0,11.643,0,7.5S3.358,0,7.5,0h49C60.642,0,64,3.357,64,7.5S60.642,15,56.5,15z M64,27.5
	c0-4.143-3.358-7.5-7.5-7.5h-49C3.358,20,0,23.357,0,27.5S3.358,35,7.5,35h49C60.642,35,64,31.643,64,27.5z M64,47.5
	c0-4.143-3.358-7.5-7.5-7.5h-49C3.358,40,0,43.357,0,47.5S3.358,55,7.5,55h49C60.642,55,64,51.643,64,47.5z"/>
</svg>
