<?xml version="1.0" encoding="iso-8859-1"?>
<!-- Generator: Adobe Illustrator 16.0.0, SVG Export Plug-In . SVG Version: 6.00 Build 0)  -->
<!DOCTYPE svg PUBLIC "-//W3C//DTD SVG 1.1//EN" "http://www.w3.org/Graphics/SVG/1.1/DTD/svg11.dtd">
<svg version="1.1" id="Layer_1" xmlns="http://www.w3.org/2000/svg" xmlns:xlink="http://www.w3.org/1999/xlink" x="0px" y="0px"
	 width="64px" height="64px" viewBox="0 0 64 64" style="enable-background:new 0 0 64 64;" xml:space="preserve">
<path d="M23.489,39.335c1.338,1.236,2.549,2.357,3.842,3.552c-1.574,1.406-3.063,2.756-4.572,4.084
	c-3.071,2.702-5.563,5.774-6.457,9.901c-0.05,0.229-0.231,0.498-0.43,0.614c-2.37,1.389-9.593,6.188-9.593,6.188l-3.125-2.358
	c0,0,3.424-6.591,5.192-9.855c0.256-0.475,0.778-0.848,1.252-1.15c0.468-0.297,1.014-0.51,1.555-0.647
	c3.294-0.839,5.685-2.911,7.797-5.466C20.338,42.52,21.917,41.004,23.489,39.335z M63.359,8.936c-0.832-1.351-1.559-2.797-2.571-4
	c-2.008-2.384-5.42-2.454-7.548-0.762c-6.414,5.1-12.027,11.002-16.928,17.577c-0.004,0.903,8.06-6.535,17.222-15.292
	c0.168,1.524,0.212,2.787-0.822,3.885c-1.904,2.026-3.718,4.14-5.632,6.16c-2.278,2.407-8.005,8.267-8.005,8.267l2.352,2.651
	c0,0,10.854-10.643,16.325-16.008c0.48,0.708,0.765,2.677,0.019,3.424c-5.318,5.523-11.953,12.215-14.361,14.928
	c0.12,0.114,0.241,0.227,0.361,0.34c4.799-2.132,13.116-10.85,17.003-14.238C64.599,12.183,64.383,10.514,63.359,8.936z
	 M62.82,59.991c-1.776,2.56-3.973,4.491-7.342,3.902c-1.147-0.201-2.298-0.856-3.259-1.56c-1.303-0.955-2.47-2.11-3.617-3.257
	C38,48.472,27.419,37.848,16.803,27.259c-0.391-0.39-1.056-0.632-1.621-0.695c-1.939-0.219-3.924-0.158-5.833-0.51
	c-4.614-0.849-7.947-4.526-8.722-9.423C0.363,14.966,0.207,13.285,0,11.613c0.076-0.051,0.153-0.102,0.229-0.152
	c0.547,0.513,1.072,1.049,1.644,1.533c1.815,1.545,3.622,3.104,5.494,4.58c0.388,0.307,1.075,0.482,1.557,0.384
	c4.049-0.827,6.96-3.126,8.537-6.979c0.658-1.609,0.063-3.142-0.891-4.395c-1.4-1.841-3.007-3.525-4.527-5.274
	c-0.359-0.413-0.728-0.817-1.152-1.293c7.164-0.291,14.014,3.218,15.123,10.995c0.191,1.34,0.127,2.716,0.28,4.063
	c0.062,0.54,0.259,1.18,0.621,1.55c8.077,8.248,16.18,16.468,24.293,24.681c3.029,3.069,6.098,6.099,9.136,9.16
	c1.484,1.496,2.815,3.097,3.256,5.249C63.911,57.246,63.723,58.694,62.82,59.991z M61.327,56.917c0-2.667-2.159-4.828-4.821-4.828
	c-2.664,0-4.822,2.161-4.822,4.828s2.158,4.828,4.822,4.828C59.168,61.745,61.327,59.583,61.327,56.917z"/>
</svg>
