<?xml version="1.0" standalone="no"?>
<!DOCTYPE svg PUBLIC "-//W3C//DTD SVG 1.1//EN" "http://www.w3.org/Graphics/SVG/1.1/DTD/svg11.dtd" >
<svg>
<metadata>
Created by FontForge 20090914 at Thu Apr 18 00:56:53 2019
 By www-data
&#201;&#145;M Klein   9.03
</metadata>
<defs>
<font id="GeosansLight-NMS" horiz-adv-x="1683" >
  <font-face 
    font-family="GeosansLight-NMS"
    font-weight="300"
    font-stretch="normal"
    units-per-em="2048"
    panose-1="2 0 6 3 2 0 0 2 0 3"
    ascent="1638"
    descent="-410"
    x-height="845.999"
    cap-height="1462"
    bbox="-78 -434 2226 1849"
    underline-thickness="38"
    underline-position="-254"
    unicode-range="U+0005-U+25FC"
  />
<missing-glyph horiz-adv-x="748" 
d="M68 0v1365h544v-1365h-544zM136 68h408v1229h-408v-1229z" />
    <glyph glyph-name=".notdef" horiz-adv-x="748" 
d="M68 0v1365h544v-1365h-544zM136 68h408v1229h-408v-1229z" />
    <glyph glyph-name="glyph1" horiz-adv-x="2048" 
 />
    <glyph glyph-name="glyph1" horiz-adv-x="2048" 
 />
    <glyph glyph-name="uni0005" horiz-adv-x="741" 
d="M166 1087l43 50c53.333 -53.333 115.333 -80 186 -80c65.333 0 123.333 25.333 174 76l37 -46c-52 -60 -125 -90 -219 -90c-91.333 0 -165 30 -221 90z" />
    <glyph glyph-name="uni0006" horiz-adv-x="636" 
d="M182 1083c0 36.667 22.667 59.332 68 67.999c34 0 56.333 -22.667 67 -68c0 -45.333 -22.333 -67.666 -67 -66.999c-15.333 0 -31 6 -47 18c-12 12 -19 28.333 -21 49z" />
    <glyph glyph-name="uni0008" horiz-adv-x="606" 
d="M143 1102c0 45.333 17.167 85 51.5 119s73.833 51 118.5 51c45.333 0 85 -17 119 -51s51 -73.667 51 -119s-17 -85 -51 -119s-73.667 -51 -119 -51s-85 17 -119 51s-51 73.667 -51 119zM186 1104c0 -32.667 13 -62 39 -88s55.333 -39 88 -39s62 13 88 39s39 55.333 39 88
s-13 62 -39 88s-55.333 39 -88 39s-62 -13 -88 -39s-39 -55.333 -39 -88z" />
    <glyph glyph-name="uni000B" horiz-adv-x="542" 
d="M143 -131l11.001 44.999c1.33301 8 15 36.667 41 86h94l-39 -78c-8 -23.333 -12 -45.666 -12 -66.999c0 -18 4 -36 12 -54c9.33301 -13.333 25.666 -20 48.999 -20c13.333 0 30.333 4 51 12l47 31v-82c-12 -13.333 -30.333 -24.333 -55 -33l-37 -12l-39 -4
c-36.667 0 -66 12.333 -88 37c-23.333 26 -35 57.333 -35 94v45z" />
    <glyph glyph-name="uni000C" horiz-adv-x="774" 
d="M137 1145l43 45l205 -203l205 203l43 -45l-248 -246z" />
    <glyph glyph-name="uni000D" unicode="&#xd;" horiz-adv-x="376" 
d="M147 0v846h84v-846h-84z" />
    <glyph glyph-name="uni0019" 
d="M102 731c0 221.333 69.666 401.667 208.999 541c140.667 140.667 321.667 211 543 211c220 0 401 -69.667 543 -209c140.667 -140.667 211 -321.667 211 -543c0 -266 -97 -468.667 -291 -608l330 -330h-113l-285 287c-116 -66.667 -247.667 -100 -395 -100
c-221.333 0 -401.666 69.333 -540.999 208c-140.667 140.667 -211 321.667 -211 543zM185.999 731.001c0 -195.333 62.335 -355.001 187.002 -479.001c125.333 -125.333 285.666 -188.333 480.999 -189c122.667 0 233.334 26.667 332.001 80l-309 312h108l270 -271
c118 82 197.333 190 238 324c-27.333 -22 -60 -33 -98 -33c-45.333 0 -85 17.167 -119 51.5s-51 73.833 -51 118.5c0 45.333 17 85 51 119s73.667 51 119 51s84.666 -17 117.999 -51l11 -10c-4 186 -66.333 338.667 -187 458c-125.333 125.333 -286.333 188.333 -483 189
c-196.667 0 -356.334 -63 -479.001 -189c-125.333 -125.333 -188.333 -285.666 -189 -480.999zM487.001 645c0 45.333 17.167 85 51.5 119s73.833 51 118.5 51c45.333 0 85 -17 119 -51s51 -73.667 51 -119s-17 -85 -51 -119s-73.667 -51 -119 -51s-85 17.167 -119 51.5
s-51 73.833 -51 118.5zM530.001 647c0 -32.667 13 -62 39 -88s55.333 -39 88 -39s62 13 88 39s39 55.333 39 88s-12.833 62 -38.5 88s-55.167 39 -88.5 39c-32.667 0 -62 -13 -88 -39s-39 -55.333 -39 -88zM633.001 612c0 12 4.33203 22.501 12.999 31.501
s19.334 13.5 32.001 13.5c12 0 22.5 -4.33301 31.5 -13s13.5 -19.334 13.5 -32.001c0 -12 -4.5 -22.5 -13.5 -31.5s-19.5 -13.5 -31.5 -13.5s-22.5 4.5 -31.5 13.5s-13.5 19.5 -13.5 31.5zM1268 647.001c0 -32.667 13 -62 39 -88s55.333 -39 88 -39s62 13 88 39
c16.667 16.667 27.667 33 33 49c1.33301 8 2.33301 16.5 3 25.5s1.66699 17.5 3 25.5c-4 28.667 -17 54 -39 76c-26 26 -55.333 39 -88 39s-62 -13 -88 -39s-39 -55.333 -39 -88zM1372 606.001c0 12 4.50098 22.501 13.501 31.501s19.5 13.5 31.5 13.5
s22.5 -4.33301 31.5 -13s13.5 -19.334 13.5 -32.001c0 -12 -4.33301 -22.5 -13 -31.5s-19.334 -13.5 -32.001 -13.5c-12 0 -22.5 4.5 -31.5 13.5s-13.5 19.5 -13.5 31.5z" />
    <glyph glyph-name="uni001A" horiz-adv-x="964" 
d="M63 762v84h115v475c0 64 22.5 114.5 67.5 151.5s100.5 55.5 166.5 55.5c64 0 117.667 -16.333 161 -49c49.333 -36.667 74 -86 74 -148v-485h258v-84h-258v-762h-82v762h-303v-762h-84v762h-115zM262 846h303v465c0 90 -51 135 -153 135c-100 0 -150 -46.333 -150 -139
v-461z" />
    <glyph glyph-name="uni001B" horiz-adv-x="940" 
d="M63 762l0.00195312 84.001h115v401c0 69.333 21.167 124.666 63.5 165.999s99.166 62 170.499 62c86 0 147.333 -25.333 184 -76c4 38 27.333 68 70 90c35.333 19.333 73.333 29 114 29c12 0 22.167 -0.333008 30.5 -1s15.166 -2 20.499 -4l54 -8v-80l-39 7l-68 6
c-34 0 -61.333 -8.33301 -82 -25c-26 -20.667 -39 -56 -39 -106v-461h201v-84h-201v-762h-82v762h-313v-762h-84v762h-115zM262.002 846.001l313 -0.000976562v452c-12 28.667 -33 51.334 -63 68.001c-30 18 -63.333 27 -100 27c-100 0 -150 -52 -150 -156v-391z" />
    <glyph glyph-name="space" unicode=" " horiz-adv-x="522" 
 />
    <glyph glyph-name="exclam" unicode="!" horiz-adv-x="417" 
d="M137 66c0 40.667 24.667 65.001 74 73.001c19.333 0 36.333 -7.33301 51 -22c11.333 -10.667 19 -27.667 23 -51c0 -40.667 -24.667 -65.334 -74 -74.001c-49.333 0 -74 24.667 -74 74zM168 303.001v1159h82v-1159h-82z" />
    <glyph glyph-name="quotedbl" unicode="&#x22;" horiz-adv-x="552" 
d="M125 1489h84l-21 -328h-43zM354 1489h84l-20 -328h-41z" />
    <glyph glyph-name="numbersign" unicode="#" horiz-adv-x="1107" 
d="M66 721l16 51h262l57 236h-288l16 49h285l63 260h49l-61 -260h285l63 260h49l-61 -260h268l-16 -49h-265l-57 -236h279l-17 -51h-274l-66 -268h-51l68 268h-287l-64 -258h-49l62 258h-266zM395 772h287l57 236h-288z" />
    <glyph glyph-name="dollar" unicode="$" horiz-adv-x="970" 
d="M74 301l84 29c46.667 -173.333 153 -260 319 -260v696c-109.333 38 -187 80.333 -233 127c-61.333 58.667 -92 138.667 -92 240c0 94 30.667 173 92 237c61.333 65.333 139 98 233 98v109h82v-109c132.667 0 231 -63.333 295 -190l-78 -35
c-45.333 82 -117.666 129.667 -216.999 143v-563c237.333 -92.667 356 -234 356 -424c0 -120 -28.667 -216.667 -86 -290c-64 -82 -154 -123 -270 -123v-111h-82v109c-101.333 0 -188 28 -260 84c-70.667 56 -118.334 133.667 -143.001 233zM238 1124
c0 -69.333 24.334 -126.666 73.001 -171.999c35.333 -34 90.666 -66 165.999 -96v530c-75.333 -10.667 -133.333 -38.334 -174 -83.001c-44 -48 -65.667 -107.667 -65 -179zM559.001 70c92.667 0 162.333 33.333 209 100c42 58.667 63 135 63 229
c0 148.667 -90.667 260 -272 334v-663z" />
    <glyph glyph-name="percent" unicode="%" horiz-adv-x="1087" 
d="M88 1171c0 68 24.668 128.332 74.001 180.999c50.667 50.667 110.667 75.667 180 75c69.333 0 129.333 -25.333 180 -76s76 -110.667 76 -180c0 -72.667 -24.667 -132 -74 -178c-52 -49.333 -112.667 -73.666 -182 -72.999c-66.667 0 -125.334 25 -176.001 75
c-52 52 -78 110.667 -78 176zM127.001 -0.000976562l795 1462h82l-795 -1462h-82zM172.001 1171c0 -45.333 17.001 -83.999 51.001 -115.999c34 -34 73.667 -51 119 -51c40.667 0 81 16.333 121 49c34 33.333 51 72.666 51 117.999c0 46.667 -17 87 -51 121
s-74.333 51 -121 51s-86.334 -17 -119.001 -51c-34 -34 -51 -74.333 -51 -121zM498.002 236c0 68 24.333 128 73 180c50.667 50.667 111 76 181 76c69.333 0 129.333 -25.333 180 -76s76 -110.667 76 -180c0 -72.667 -24.667 -132.334 -74 -179.001
c-52 -49.333 -112.667 -73.666 -182 -72.999c-66.667 0 -125.667 25 -177 75c-52 52 -77.667 111 -77 177zM582.002 236c0 -45.333 17.001 -84.333 51.001 -117c34 -34 73.667 -51 119 -51c44 0 83.333 16.333 118 49c36 35.333 54 75 54 119c0 46.667 -17.167 87 -51.5 121
s-74.5 51 -120.5 51c-46.667 0 -86.334 -17.333 -119.001 -52c-34 -34 -51 -74 -51 -120z" />
    <glyph glyph-name="ampersand" unicode="&#x26;" horiz-adv-x="1232" 
d="M76 313c0 114.667 54 222 162 322l231 170l-82 123l-61 104c-20.667 42 -31 85 -31 129c0 82 28.667 149.667 86 203c58.667 54.667 129 82 211 82c94 0 169.667 -24.667 227 -74s86 -120.333 86 -213c0 -95.333 -60 -184 -180 -266l-150 -102l320 -486l213 174l45 -59
l-217 -176l162 -244h-97l-129 193c-166.667 -134 -320.667 -201 -462 -201c-98 0 -178.667 30 -242 90c-61.333 58.667 -92 135.667 -92 231zM160 313c0 -72.667 23.667 -130.668 71 -174.001c46.667 -45.333 107 -67.666 181 -66.999c98 0 199.667 33.333 305 100
c15.333 9.33301 32.5 20.5 51.5 33.5s39.833 29.167 62.5 48.5l-323 489c-56 -38 -101.833 -70.333 -137.5 -97s-62.167 -48.667 -79.5 -66c-87.333 -86 -131 -175 -131 -267zM375 1161c0 -39.333 7.33398 -72.001 22.001 -98.001l58 -92l80 -121l155 104
c19.333 13.333 37.5 28 54.5 44s32.5 33.667 46.5 53l28 53c5.33301 12 8.66602 30.333 9.99902 55c0 70.667 -21 123.334 -63 158.001c-44 35.333 -101.333 53 -172 53c-58.667 0 -110 -19.667 -154 -59c-44 -40.667 -65.667 -90.667 -65 -150z" />
    <glyph glyph-name="quotesingle" unicode="'" horiz-adv-x="335" 
d="M127 991v473h82v-473h-82z" />
    <glyph glyph-name="parenleft" unicode="(" horiz-adv-x="376" 
d="M78 709c0 284 51.002 562.333 153.002 835h72c-27.333 -70.667 -50.833 -145.334 -70.5 -224.001s-36.5 -163 -50.5 -253c-10.667 -70.667 -18.667 -136.167 -24 -196.5s-8 -114.166 -8 -161.499c0 -286.667 51 -565.334 153 -836.001h-72
c-13.333 35.333 -25.833 70.833 -37.5 106.5s-22.167 71.834 -31.5 108.501c-2.66699 10.667 -5.83398 25 -9.50098 43l-13.5 66l-11 55l-17 88c-10.667 69.333 -18.834 134.833 -24.501 196.5s-8.5 119.167 -8.5 172.5z" />
    <glyph glyph-name="parenright" unicode=")" horiz-adv-x="397" 
d="M111 -127c27.333 74 50.832 150.166 70.499 228.499s36.167 160.5 49.5 246.5c10.667 68 18.834 132.167 24.501 192.5s8.5 116.5 8.5 168.5c0 276 -51 554.333 -153 835h71c56 -148.667 97.667 -307 125 -475c9.33301 -61.333 16.5 -121.666 21.5 -180.999
s7.5 -119 7.5 -179c0 -293.333 -51.333 -572 -154 -836h-71z" />
    <glyph glyph-name="asterisk" unicode="*" horiz-adv-x="591" 
d="M27 1143c0 44 80.9971 86.333 242.997 127l-80 14l-67 25c-64 24.667 -96 53.334 -96 86.001c0 26 15 43 45 51c36.667 0 74 -19 112 -57l97 -99l-31 103l-12 100c0 45.333 18.333 71.333 55 78c35.333 0 53 -26 53 -78l-10 -84l-14 -63
c0 -16.667 -6.33301 -35.334 -19 -56.001c70.667 88.667 140.334 140.667 209.001 156c28.667 0 44.334 -15.667 47.001 -47c0 -23.333 -31.333 -50.666 -94 -81.999l-152 -47c34 -6.66699 63 -12.834 87 -18.501s43 -11.834 57 -18.501c60 -22 94 -52.667 102 -92
c0 -28.667 -15.667 -43 -47 -43c-35.333 0 -71.666 17.667 -108.999 53l-100 96l29 -106l10 -90c0 -52 -16.333 -78.667 -49 -80c-38 -1.33301 -57 24 -57 76c0 32.667 2 54.334 6 65.001l39 135l-97 -92c-32.667 -32.667 -70.667 -53 -114 -61c-28.667 0 -43 16.333 -43 49
z" />
    <glyph glyph-name="plus" unicode="+" horiz-adv-x="774" 
d="M135 500v84h209v209h94v-209h209v-84h-209v-209h-94v209h-209z" />
    <glyph glyph-name="comma" unicode="," horiz-adv-x="366" 
d="M94 -193l152 334l71 -30l-196 -322z" />
    <glyph glyph-name="hyphen" unicode="-" horiz-adv-x="555" 
d="M37 500v84h432v-84h-432z" />
    <glyph glyph-name="period" unicode="." horiz-adv-x="231" 
d="M37 55c0 36.667 22.332 59.332 66.999 67.999c34.667 0 57.334 -22.667 68.001 -68c0 -45.333 -22.667 -67.666 -68 -66.999c-15.333 0 -31 6 -47 18c-12 12 -18.667 28.333 -20 49z" />
    <glyph glyph-name="slash" unicode="/" horiz-adv-x="587" 
d="M47 0l430 1493h80l-426 -1493h-84z" />
    <glyph glyph-name="zero" unicode="0" horiz-adv-x="1138" 
d="M37 743c0 195.333 40.332 364.001 120.999 506.001c98 173.333 236.333 260 415 260s317.334 -86.667 416.001 -260c80.667 -144.667 121 -313.334 121 -506.001c0 -196.667 -39.667 -365 -119 -505c-98 -172 -237.333 -258 -418 -258c-178.667 0 -317 86.667 -415 260
c-80.667 142 -121 309.667 -121 503zM126.999 743.001c0 -168 32.001 -314.667 96.001 -440c82 -158.667 198.667 -237.667 350 -237c140.667 0 252.667 70 336 210c75.333 124 113 279.667 113 467c0 170.667 -32 319 -96 445
c-80.667 158.667 -198.334 237.667 -353.001 237c-138 0 -249 -71 -333 -213c-75.333 -128.667 -113 -285 -113 -469z" />
    <glyph glyph-name="one" unicode="1" horiz-adv-x="1116" 
d="M356 1378l56 84h276v-1462h-84v1378h-248z" />
    <glyph glyph-name="two" unicode="2" horiz-adv-x="1116" 
d="M125 0l717.002 829.001c57.333 82 86 167.333 86 256c0 86 -34.333 159.333 -103 220c-68 58.667 -147 88 -237 88c-110.667 0 -197.334 -35.667 -260.001 -107c-38 -42 -64.667 -94.667 -80 -158h-92c9.33301 70.667 44.666 141 105.999 211
c82 90 190.667 135.333 326 136c116 0 215.667 -36.333 299 -109c83.333 -71.333 125 -165 125 -281c0 -118.667 -44.333 -235.334 -133 -350.001c-12 -15.333 -30.5 -37.5 -55.5 -66.5l-94.5 -109.5l-420 -475h701v-84h-885z" />
    <glyph glyph-name="three" unicode="3" horiz-adv-x="1116" 
d="M152 309l89.999 -0.00390625c18 -66.667 56.667 -122.667 116 -168c58.667 -45.333 123 -67.666 193 -66.999c90 0 167 30.667 231 92c64 64 96.333 140.333 97 229c0 110.667 -39.667 197.334 -119 260.001c-60 48 -121.667 72 -185 72h-86v121h86c86 0 155 24 207 72
c50.667 46.667 76 114 76 202c0 84.667 -27.333 153.667 -82 207c-54.667 54.667 -125 82 -211 82c-164 0 -263 -86 -297 -258h-96c12 106.667 53.667 190 125 250c70.667 61.333 160 92 268 92c112 0 205.667 -34 281 -102c75.333 -66.667 112.666 -157 111.999 -271
c0 -181.333 -91.333 -292.666 -274 -333.999c191.333 -57.333 287 -188.333 287 -393c0 -121.333 -39.667 -219 -119 -293c-79.333 -75.333 -179.666 -112.666 -300.999 -111.999c-101.333 0 -188 28 -260 84c-69.333 56 -115.666 134.333 -138.999 235z" />
    <glyph glyph-name="four" unicode="4" horiz-adv-x="1116" 
d="M94 279l838 1204v-1123h170v-81h-170v-279h-86v279h-752zM244 360h602v863z" />
    <glyph glyph-name="five" unicode="5" horiz-adv-x="1116" 
d="M55 287l78 30.001c39.333 -80.667 85.666 -140.667 138.999 -180c66.667 -49.333 153.334 -74 260.001 -74c126.667 0 231.334 44.667 314.001 134c82 87.333 123 195.666 123 324.999c0 126.667 -46 229 -138 307c-86 74 -185.667 109 -299 105l-65 -2h-31
c-12 0 -28.333 -2.66699 -49 -8c-46.667 0 -95 -9.66699 -145 -29l145 567h561v-84h-495l-88 -377l81 11l86 6c131.333 8 250.333 -33 357 -123c109.333 -93.333 164 -217.666 164 -372.999c0 -158.667 -48 -288.334 -144 -389.001
c-96.667 -102.667 -222.334 -153.667 -377.001 -153c-232 0 -391 102.333 -477 307z" />
    <glyph glyph-name="six" unicode="6" horiz-adv-x="1116" 
d="M59 469l0.00292969 45.002v21c0 8 0.666992 16 2 24s3.5 19.5 6.5 34.5s7.83301 34.167 14.5 57.5c6.66699 28.667 15.5 55.667 26.5 81s22.5 49.666 34.5 72.999l367 657h96l-311 -567l86 43l88 25l92 8c143.333 0 263 -48 359 -144c96.667 -96.667 145 -216 145 -358
c0 -144.667 -47.833 -264.834 -143.5 -360.501s-215.834 -143.5 -360.501 -143.5c-148.667 0 -269.334 46.333 -362.001 139c-92.667 95.333 -139.334 217 -140.001 365zM141.003 469.002c0 -121.333 39.667 -221.667 119 -301c80.667 -80.667 181 -121 301 -121
s220.333 40.333 301 121s121 181 121 301c0 112 -41 210.333 -123 295c-82 83.333 -181.667 125 -299 125c-116 0 -215 -41 -297 -123s-123 -181 -123 -297z" />
    <glyph glyph-name="seven" unicode="7" horiz-adv-x="1116" 
d="M49 33l887 1345h-873v84h1029l-973 -1482z" />
    <glyph glyph-name="eight" unicode="8" horiz-adv-x="1116" 
d="M135 389c0 88.667 24.001 167.33 72.001 235.997c48 66.667 115 116.334 201 149.001c-68 20.667 -122.667 64.334 -164 131.001c-39.333 64 -59.333 132.333 -60 205c0 110.667 35 200.667 105 270c69.333 70.667 159.333 106.334 270 107.001
c112 0 202.833 -34.833 272.5 -104.5s104.5 -160.5 104.5 -272.5c0 -76.667 -20.667 -146.334 -62 -209.001c-39.333 -61.333 -95 -103.666 -167 -126.999c74 -27.333 134 -66.333 180 -117c66.667 -70.667 100 -160 100 -268c0 -121.333 -39.667 -221 -119 -299
c-80.667 -78 -182.334 -117 -305.001 -117c-124 0 -226.333 38.333 -307 115c-80.667 78 -121 178.333 -121 301zM217.001 388.996c0 -92.667 32 -171 96 -235c65.333 -65.333 147.333 -98.333 246 -99c100 0 182 31.667 246 95c66.667 62.667 100 142.334 100 239.001
c0 92.667 -34 172 -102 238c-34 34 -71.167 60.833 -111.5 80.5s-84.5 29.5 -132.5 29.5c-46.667 0 -89.667 -9.83301 -129 -29.5s-76.333 -45.834 -111 -78.501c-68 -68 -102 -148 -102 -240zM266.001 1110c0 -82 28 -150.999 84 -206.999
c27.333 -27.333 58.5 -49.833 93.5 -67.5s73.5 -26.5 115.5 -26.5c44 0 83.333 8.16699 118 24.5s65.667 38.166 93 65.499c56 56 84 126.333 84 211s-28 155 -84 211s-126.333 84 -211 84c-83.333 0 -153 -28 -209 -84s-84 -126.333 -84 -211z" />
    <glyph glyph-name="nine" unicode="9" horiz-adv-x="1116" 
d="M61 969c0 144.667 47.8311 264.835 143.498 360.502s215.834 143.5 360.501 143.5s264.334 -48 359.001 -144c95.333 -95.333 143 -215.333 143 -360c0 -28.667 -1.66699 -58.334 -5 -89.001s-9.33301 -62 -18 -94c-6.66699 -27.333 -15 -53.5 -25 -78.5
s-22 -49.833 -36 -74.5l-365 -653l-77 36l290 527l-86 -43l-88 -25l-92 -8c-144.667 0 -264.667 47 -360 141c-95.333 95.333 -143.333 215.666 -144 360.999zM142.998 969.001c0 -114.667 40.333 -213.667 121 -297c79.333 -82 179.666 -123 300.999 -123
c118.667 0 218.334 40.333 299.001 121s121 180.334 121 299.001c0 121.333 -39.667 221.666 -119 300.999c-80.667 80.667 -181 121 -301 121s-220.333 -40.333 -301 -121s-121 -181 -121 -301z" />
    <glyph glyph-name="colon" unicode=":" horiz-adv-x="333" 
d="M104 55c0 36.667 22.666 59.332 67.999 67.999c34.667 0 57.334 -22.667 68.001 -68c0 -45.333 -22.667 -67.666 -68 -66.999c-15.333 0 -31 6 -47 18c-12 12 -19 28.333 -21 49zM103.999 658.998c0 36.667 22.666 59.332 67.999 67.999
c34.667 0 57.334 -22.667 68.001 -68c0 -45.333 -22.667 -67.666 -68 -66.999c-15.333 0 -31 6 -47 18c-12 12 -19 28.333 -21 49z" />
    <glyph glyph-name="semicolon" unicode=";" horiz-adv-x="417" 
d="M84 -193l152 334l71 -30l-196 -322zM143 659c0 36.667 22.666 59.332 67.999 67.999c34.667 0 57.334 -22.667 68.001 -68c0 -45.333 -22.667 -67.666 -68 -66.999c-15.333 0 -31 6 -47 18c-12 12 -19 28.333 -21 49z" />
    <glyph glyph-name="less" unicode="&#x3c;" horiz-adv-x="647" 
d="M66 539l514 313v-92l-365 -221l365 -222v-92z" />
    <glyph glyph-name="equal" unicode="=" horiz-adv-x="606" 
d="M76 375v82h463v-82h-463zM76 625v84h463v-84h-463z" />
    <glyph glyph-name="greater" unicode="&#x3e;" horiz-adv-x="647" 
d="M94 225v92l363 222l-363 221v92l514 -313z" />
    <glyph glyph-name="question" unicode="?" horiz-adv-x="960" 
d="M94 1210c75.333 181.333 212 272.331 410 272.998c106.667 0 194.667 -24.667 264 -74c78 -56 117 -135.333 117 -238c0 -83.333 -30.667 -159.666 -92 -228.999c-6.66699 -9.33301 -24.5 -25 -53.5 -47l-116.5 -86l-172 -125c-68 -49.333 -102.333 -109.333 -103 -180
c0 -32.667 11.667 -58.667 35 -78s52 -29 86 -29c50.667 0 93.667 14.333 129 43l49 -67c-15.333 -15.333 -39.333 -30.333 -72 -45l-47 -13l-59 -4c-53.333 -4 -101.833 11.833 -145.5 47.5s-65.5 84.167 -65.5 145.5c0 88.667 47.667 168.334 143 239.001l174 129l98.5 76
c26.333 20.667 44.833 37.667 55.5 51c48 56 72 113.333 72 172c0 76.667 -31.333 135.667 -94 177c-56 35.333 -123.667 53 -203 53c-82 0 -154.333 -26 -217 -78c-36.667 -30 -75 -79 -115 -147zM387 65.998c0 39.333 24 63 72 71c39.333 0.666992 63 -23 71 -71
c0 -48 -23.667 -72 -71 -72c-39.333 0 -63.333 24 -72 72z" />
    <glyph glyph-name="at" unicode="@" horiz-adv-x="1220" 
d="M70 403c0 148.667 52.499 273.666 157.499 374.999s233.167 152 384.5 152c147.333 0 273.666 -46.333 378.999 -139c109.333 -96.667 164 -217.667 164 -363c0 -84.667 -16.333 -155.667 -49 -213c-40.667 -70.667 -100.667 -106 -180 -106
c-42 0 -75.667 14.333 -101 43c-19.333 23.333 -30.666 47.666 -33.999 72.999c-44 -78 -121.333 -116.667 -232 -116c-78 0 -138 23.667 -180 71c-40.667 46.667 -61.334 110.334 -62.001 191.001c0 80.667 26.667 147.334 80 200.001c54.667 53.333 122.334 80 203.001 80
c104 0 174.333 -41 211 -123l8 111h51l-26 -334c-4 -45.333 4 -82 24 -110c16.667 -20.667 38.667 -31 66 -31c50.667 0 93 30 127 90c27.333 45.333 41 103.333 41 174c0 130 -49.333 238 -148 324c-92.667 83.333 -206.667 125 -342 125c-138 0 -253.333 -46 -346 -138
c-95.333 -90 -143 -202 -143 -336c0 -144.667 45.667 -260 137 -346c91.333 -87.333 209.333 -131 354 -131c54.667 0 112.667 8.33301 174 25c70.667 22 122.667 52 156 90l39 -39c-31.333 -35.333 -80.333 -65.333 -147 -90c-65.333 -26 -140.666 -39 -225.999 -39
c-173.333 0 -308.333 54.667 -405 164c-90 98 -135 220 -135 366zM372.999 370.999c0 -138 61.999 -206.999 185.999 -206.999c70.667 0 125.334 21.667 164.001 65c40.667 45.333 61 102.666 61 171.999c0 58 -16.333 105.333 -49 142s-77.667 55 -135 55
c-62.667 0 -116.667 -22.667 -162 -68c-44 -44 -65.667 -97 -65 -159z" />
    <glyph glyph-name="A" unicode="A" horiz-adv-x="1296" 
d="M63 0l584 1509l586 -1509h-84l-502 1296l-502 -1296h-82z" />
    <glyph glyph-name="B" unicode="B" horiz-adv-x="1144" 
d="M156 0l-0.000976562 1462h356c113.333 0 203.333 -29.333 270 -88c70.667 -62.667 106.334 -150 107.001 -262c0 -128.667 -52.667 -223 -158 -283c102.667 -20.667 185.334 -67 248.001 -139c61.333 -72 92 -160.667 92 -266c0 -125.333 -44.333 -227 -133 -305
c-88.667 -79.333 -197.334 -119 -326.001 -119h-456zM237.999 84l376 -0.000976562c104 0 192.333 31.333 265 94c73.333 62.667 110 144.667 110 246c0 102.667 -37.333 185.334 -112 248.001c-69.333 60 -157 90 -263 90h-376v-678zM237.999 845.999h291.999
c79.333 0 145 24.5 197 73.5s78 113.167 78 192.5c0 82 -27.333 146.333 -82 193c-55.333 48.667 -122.666 73 -201.999 73h-3h-280v-532z" />
    <glyph glyph-name="C" unicode="C" horiz-adv-x="1437" 
d="M102 731c0 221.333 69.666 401.666 208.999 540.999c140.667 140.667 321.667 211 543 211c125.333 0 238.666 -18.667 339.999 -56c60 -23.333 118 -56.666 174 -99.999v-104c-57.333 48 -120 86 -188 114c-104 42 -212.667 63.333 -326 64
c-194 0 -353.833 -62.833 -479.5 -188.5s-188.5 -286.167 -188.5 -481.5s62.333 -355 187 -479c125.333 -125.333 285.666 -188.333 480.999 -189c121.333 0 227 22 317 66c52 26 117.667 67.667 197 125v-96l-98 -72c-76.667 -56 -180.667 -90 -312 -102
c-15.333 -1.33301 -31.666 -2.33301 -48.999 -3s-35.666 -1 -54.999 -1c-221.333 0 -401.666 69.333 -540.999 208c-140.667 140.667 -211 321.667 -211 543z" />
    <glyph glyph-name="D" unicode="D" horiz-adv-x="1409" 
d="M156 0l-0.000976562 1462h487c196.667 0 356.334 -73.667 479.001 -221c116 -138 174 -307.333 174 -508c0 -202 -57.333 -372.667 -172 -512c-122.667 -147.333 -283 -221 -481 -221h-487zM237.999 84h405c150 0 280.333 56 391 168c118.667 120 178 280.333 178 481
c0 178.667 -49.667 329 -149 451c-106 130.667 -245 196 -417 196h-3h-405v-1296z" />
    <glyph glyph-name="E" unicode="E" horiz-adv-x="968" 
d="M145 0v1462h703v-84h-619v-532h619v-90h-619v-672h619v-84h-703z" />
    <glyph glyph-name="F" unicode="F" horiz-adv-x="886" 
d="M156 0v1462h635v-84h-553v-532h553v-84h-553v-762h-82z" />
    <glyph glyph-name="G" unicode="G" 
d="M102 731c0 218.667 70.332 398.333 210.999 539c142 142 322.333 213 541 213c262 0 468.333 -100.333 619 -301l-68 -52c-131.333 180 -315 270.333 -551 271c-192.667 0 -352.5 -63.5 -479.5 -190.5s-190.5 -286.833 -190.5 -479.5c0 -194 63 -353.667 189 -479
c128.667 -125.333 289 -188.333 481 -189c206 0 372 69 498 207c95.333 104 150 221.667 164 353h-484v84h576c0 -199.333 -65 -367.333 -195 -504c-140.667 -148.667 -327 -223 -559 -223c-221.333 0 -401.666 69.333 -540.999 208c-140.667 140.667 -211 321.667 -211 543
z" />
    <glyph glyph-name="H" unicode="H" horiz-adv-x="1259" 
d="M156 0v1462h82v-616h804v616h84v-1462h-84v762h-804v-762h-82z" />
    <glyph glyph-name="I" unicode="I" horiz-adv-x="393" 
d="M158 0v1462h82v-1462h-82z" />
    <glyph glyph-name="J" unicode="J" horiz-adv-x="645" 
d="M61 117l72 45c34 -62.667 84.667 -94 152 -94c102.667 0 153.667 75.667 153 227v1167h84v-1171c0 -204.667 -78.333 -307 -235 -307c-102.667 0 -178 44.333 -226 133z" />
    <glyph glyph-name="K" unicode="K" horiz-adv-x="1073" 
d="M135 0v1462h84v-649l653 649h119l-700 -698l762 -764h-117l-705 707l-12 -13v-694h-84z" />
    <glyph glyph-name="L" unicode="L" horiz-adv-x="729" 
d="M156 0v1462h82v-1378h411v-84h-493z" />
    <glyph glyph-name="M" unicode="M" horiz-adv-x="1847" 
d="M47 0l381 1505l498 -1304l497 1306l381 -1507h-86l-311 1229l-481 -1266l-482 1268l-313 -1231h-84z" />
    <glyph glyph-name="N" unicode="N" horiz-adv-x="1464" 
d="M158 0v1473l1091 -1280v1269h84v-1487l-1093 1266v-1241h-82z" />
    <glyph glyph-name="O" unicode="O" 
d="M102 731c0 221.333 70 402 210 542s320.667 210 542 210c220 0 400.667 -70 542 -210s212 -320.667 212 -542s-70.667 -401.833 -212 -541.5s-322 -209.5 -542 -209.5c-221.333 0 -402 69.833 -542 209.5s-210 320.167 -210 541.5zM186 731
c0 -195.333 62.833 -355.5 188.5 -480.5s285.5 -187.5 479.5 -187.5c196.667 0 357.5 62.5 482.5 187.5s187.5 285.167 187.5 480.5s-62.5 355.833 -187.5 481.5s-285.833 188.5 -482.5 188.5c-194 0 -353.833 -62.833 -479.5 -188.5s-188.5 -286.167 -188.5 -481.5z" />
    <glyph glyph-name="P" unicode="P" horiz-adv-x="1003" 
d="M156 0v1462h356c112 0 206.167 -32.667 282.5 -98s114.5 -153.333 114.5 -264c0 -112 -38 -200.667 -114 -266c-76.667 -68 -171 -102.333 -283 -103h-274v-731h-82zM238 815l271.999 -0.000976562c90 0 165 24.667 225 74c60 52 90 122.333 90 211
s-31.333 158.334 -94 209.001c-55.333 46 -127.666 69 -216.999 69h-4h-272v-563z" />
    <glyph glyph-name="Q" unicode="Q" 
d="M119 731c0 221.333 69.666 401.666 208.999 540.999c140.667 140.667 321.334 211 542.001 211c220 0 401 -69.667 543 -209c140.667 -140.667 211 -321.667 211 -543s-70.333 -401.666 -211 -540.999c-140 -140 -320 -210 -540 -210h-3
c-221.333 0 -401.333 69.333 -540 208c-140.667 140.667 -211 321.667 -211 543zM202.999 731c0 -195.333 62.001 -355.001 186.001 -479.001c125.333 -125.333 285.666 -188.333 480.999 -189c196.667 0 358 61.667 484 185c124 124 186 285 186 483
c0 196.667 -62 357 -186 481c-125.333 125.333 -286.666 188.333 -483.999 189c-196.667 0 -356.334 -63 -479.001 -189c-125.333 -125.333 -188 -285.666 -188 -480.999zM872 -113.001h433v-84h-433v84z" />
    <glyph glyph-name="R" unicode="R" horiz-adv-x="991" 
d="M156 0l0.000976562 1462h338c54.667 0 106.5 -7.83301 155.5 -23.5s91.167 -38.834 126.5 -69.501s63.666 -68.5 84.999 -113.5s32 -96.833 32 -155.5c0 -64 -9.83301 -119.333 -29.5 -166s-47.667 -85 -84 -115s-79 -52.167 -128 -66.5s-103.167 -21.5 -162.5 -21.5
l469 -731h-98l-465 731h-157v-731h-82zM238.001 815.001l275.999 -0.000976562c87.333 0 158 24.667 212 74s81 120.333 81 213c0 46.667 -8.16699 87.334 -24.5 122.001s-38.833 63.167 -67.5 85.5s-62.167 39.333 -100.5 51s-79.166 17.5 -122.499 17.5h-254v-563z" />
    <glyph glyph-name="S" unicode="S" horiz-adv-x="1019" 
d="M162 1133c0 101.333 35.998 182.334 107.998 243.001c70.667 62.667 158 94 262 94c172 0 293.667 -64 365 -192l-80 -35c-27.333 45.333 -60 78.666 -98 99.999c-48 30 -110.333 45.333 -187 46c-80.667 0 -147.334 -22.667 -200.001 -68
c-57.333 -48 -86 -110.667 -86 -188c0 -69.333 30 -130.333 90 -183c34 -27.333 102.333 -64 205 -110c64 -28.667 119.167 -57 165.5 -85s83.833 -56.333 112.5 -85c79.333 -78 119 -175 119 -291c0 -186 -78.667 -308.333 -236 -367
c-51.333 -18.667 -111.666 -28 -180.999 -28h-7v84c105.333 0 188 25.667 248 77c61.333 53.333 92 131.333 92 234c0 96.667 -36.333 177.334 -109 242.001c-19.333 18 -48.666 37.833 -87.999 59.5s-89.666 46.167 -150.999 73.5c-116 52 -195.333 97 -238 135
c-70.667 61.333 -106 142.666 -106 243.999z" />
    <glyph glyph-name="T" unicode="T" horiz-adv-x="903" 
d="M92 1378v84h731v-84h-323v-1378h-84v1378h-324z" />
    <glyph glyph-name="U" unicode="U" horiz-adv-x="1136" 
d="M156 365v1097h82v-1097c0 -94 34 -168 102 -222c62 -48.667 140 -73 234 -73h4c94 0 173 25 237 75c69.333 54.667 104.333 128 105 220v1097h84v-1097c0 -118.667 -43.333 -213.667 -130 -285c-75.333 -62.667 -174 -94 -296 -94c-118.667 0 -217.667 32 -297 96
c-83.333 69.333 -125 163.666 -125 282.999z" />
    <glyph glyph-name="V" unicode="V" horiz-adv-x="1077" 
d="M-39 1462h82l502 -1296l502 1296h83l-585 -1509z" />
    <glyph glyph-name="W" unicode="W" horiz-adv-x="1794" 
d="M70 1462h82l383 -1196l370 1223l369 -1223l383 1196h86l-473 -1482l-365 1226l-366 -1226z" />
    <glyph glyph-name="X" unicode="X" horiz-adv-x="1085" 
d="M68 0l430 756l-406 706h96l361 -633l362 633h97l-406 -712l430 -750h-96l-389 678l-385 -678h-94z" />
    <glyph glyph-name="Y" unicode="Y" horiz-adv-x="1046" 
d="M68 1462h96l360 -633l365 633h96l-418 -731v-731h-84v731z" />
    <glyph glyph-name="Z" unicode="Z" horiz-adv-x="1134" 
d="M80 0l838 1376h-789v86h940l-840 -1378h836v-84h-985z" />
    <glyph glyph-name="bracketleft" unicode="[" horiz-adv-x="438" 
d="M121 -94v1640h221v-71h-137v-1500h143v-69h-227z" />
    <glyph glyph-name="backslash" unicode="\" horiz-adv-x="575" 
d="M47 1462h82l418 -1462h-80z" />
    <glyph glyph-name="bracketright" unicode="]" horiz-adv-x="438" 
d="M125 -25h145v1500h-139v71h221v-1640h-227v69z" />
    <glyph glyph-name="asciicircum" unicode="^" horiz-adv-x="720" 
d="M84 772l248 576h67l248 -576h-55l-225 422l-230 -422h-53z" />
    <glyph glyph-name="underscore" unicode="_" horiz-adv-x="731" 
d="M0 -360h754v-74h-754v74z" />
    <glyph glyph-name="grave" unicode="`" horiz-adv-x="679" 
d="M186 1233l45 49l275 -274l-51 -47z" />
    <glyph glyph-name="a" unicode="a" horiz-adv-x="1044" 
d="M72 422c0 122.667 41.666 225.666 124.999 308.999c84.667 84.667 188.334 127 311.001 127c135.333 0 248 -53.333 338 -160v148h84v-846h-84v145c-88 -106 -199.667 -159 -335 -159h-3c-122.667 0 -225.667 41.667 -309 125c-84.667 84.667 -127 188.334 -127 311.001z
M153.999 421.999c0 -96.667 34.6689 -179.834 104.002 -249.501s152.666 -104.5 249.999 -104.5c98 0 181.333 34 250 102c69.333 70 104 154 104 252c0 96.667 -34.833 179.834 -104.5 249.501s-152.834 104.5 -249.501 104.5c-98 0 -181.333 -34 -250 -102
c-69.333 -69.333 -104 -153.333 -104 -252z" />
    <glyph glyph-name="b" unicode="b" horiz-adv-x="1058" 
d="M113 0l0.000976562 1516h84v-828c88.667 113.333 204 170 346 170c122.667 0 225.667 -41.667 309 -125c84.667 -84.667 127 -188.334 127 -311.001s-41.667 -225.667 -125 -309c-84.667 -84.667 -188.334 -127 -311.001 -127c-140.667 0 -256 56.667 -346 170v-156h-84z
M188.001 422.001c0 -96.667 34.834 -179.834 104.501 -249.501s153.167 -104.5 250.5 -104.5c98 0 181.333 34 250 102c69.333 70 104 154 104 252c0 96.667 -34.833 179.834 -104.5 249.501s-152.834 104.5 -249.501 104.5c-98 0 -181.333 -34 -250 -102
c-69.333 -69.333 -104.333 -153.333 -105 -252z" />
    <glyph glyph-name="c" unicode="c" horiz-adv-x="897" 
d="M96 422c0 125.333 41.667 229.667 125 313s188 125 314 125c108 0 194 -24.667 258 -74v-100l-54 35l-57 31c-50 17.333 -97.333 26 -142 26h-5c-105.333 0 -190.666 -32.667 -255.999 -98c-66.667 -66.667 -100.334 -152.667 -101.001 -258
c0 -104 33.5 -189.333 100.5 -256s152.5 -100 256.5 -100c98 0 184 32.667 258 98v-105c-76 -50 -160.667 -75 -254 -75h-4c-125.333 0 -229.833 41.5 -313.5 124.5s-125.5 187.5 -125.5 313.5z" />
    <glyph glyph-name="d" unicode="d" horiz-adv-x="1067" 
d="M88 422c0 122.667 41.666 225.666 124.999 308.999c84.667 84.667 188.334 127 311.001 127c135.333 0 250 -55.333 344 -166v824h84v-1516h-84v152c-90 -110.667 -204.667 -166 -344 -166c-122.667 0 -225.667 41.667 -309 125
c-84.667 84.667 -127 188.334 -127 311.001zM169.999 421.999c0 -96.667 34.832 -179.834 104.499 -249.501s152.834 -104.5 249.501 -104.5c98 0 181.333 34 250 102c70 70 105 154 105 252c0 96.667 -34.833 179.834 -104.5 249.501s-153.167 104.5 -250.5 104.5
c-98 0 -181.333 -34 -250 -102c-69.333 -69.333 -104 -153.333 -104 -252z" />
    <glyph glyph-name="e" unicode="e" horiz-adv-x="1003" 
d="M70 422c0 126.667 41 231.001 123 313.001c83.333 83.333 188.333 125 315 125c125.333 0 229 -39 311 -117c83.333 -78 125 -179 125 -303h-792c0 -114.667 30.667 -205.334 92 -272.001c64 -68 152 -102 264 -102c57.333 0 109.333 9.33301 156 28
c58.667 24.667 111 74.667 157 150l76 -35c-53.333 -101.333 -135.333 -169.666 -246 -204.999c-42 -13.333 -89.667 -20 -143 -20c-126.667 0 -231 41.667 -313 125c-83.333 83.333 -125 187.666 -125 312.999zM164 520.001h685.999c-13.333 78 -53.666 141 -120.999 189
c-63.333 46 -135.666 69 -216.999 69h-4c-174.667 0 -289.334 -86 -344.001 -258z" />
    <glyph glyph-name="f" unicode="f" horiz-adv-x="555" 
d="M88 762v84h115v481c0 130 65.333 195 196 195c30 0 49.333 -1.33301 58 -4c16.667 0 35 -5 55 -15v-84l-55 13l-56 6c-76.667 0 -114.667 -45 -114 -135v-457h200v-84h-200v-762h-84v762h-115z" />
    <glyph glyph-name="g" unicode="g" horiz-adv-x="1044" 
d="M72 422c0 122.667 41.667 225.666 125 308.999c84.667 84.667 188.334 127 311.001 127c135.333 0 248 -53.333 338 -160v148h84v-828c0 -124 -38.333 -224.167 -115 -300.5s-177 -114.5 -301 -114.5c-230.667 0 -368.667 90.667 -414 272h84
c15.333 -66.667 58.333 -116.334 129 -149.001c56 -26 123 -39 201 -39c105.333 0 186.666 29.333 243.999 88c58.667 58.667 88 140.334 88 245.001v125c-88 -106 -199.667 -159 -335 -159h-3c-122.667 0 -225.667 41.667 -309 125
c-84.667 84.667 -127 188.334 -127 311.001zM154 421.999c0 -96.667 34.6689 -179.834 104.002 -249.501s152.666 -104.5 249.999 -104.5c98 0 181.333 34 250 102c69.333 70 104 154 104 252c0 96.667 -34.833 179.834 -104.5 249.501s-152.834 104.5 -249.501 104.5
c-98 0 -181.333 -34 -250 -102c-69.333 -69.333 -104 -153.333 -104 -252z" />
    <glyph glyph-name="h" unicode="h" horiz-adv-x="933" 
d="M152 0l-0.000976562 1516h84v-783c50.667 83.333 134.334 125 251.001 125c222.667 0 334 -114 334 -342v-518h-84v510c0 178.667 -83.333 268 -250 268c-68 0 -126.667 -20.333 -176 -61c-50.667 -40.667 -75.667 -95.334 -75 -164.001v-551h-84z" />
    <glyph glyph-name="i" unicode="i" horiz-adv-x="376" 
d="M125 1065c0 36.667 22.667 59.333 68 68c34 0 56.333 -22.667 67 -68c0 -45.333 -22.333 -68 -67 -68c-15.333 0 -31.333 6.33301 -48 19c-12 12 -18.667 28.333 -20 49zM150 -0.000976562v846h83v-846h-83z" />
    <glyph glyph-name="j" unicode="j" horiz-adv-x="378" 
d="M125 1065c0 36.667 22.667 59.333 68 68c34 0 56.333 -22.667 67 -68c0 -45.333 -22.333 -68 -67 -68c-15.333 0 -31.333 6.33301 -48 19c-12 12 -18.667 28.333 -20 49zM152 -369.001v1215h84v-1215h-84z" />
    <glyph glyph-name="k" unicode="k" horiz-adv-x="854" 
d="M137 0v1516h84v-1002l367 365h119l-383 -381l497 -498h-110l-443 440l-47 -47v-393h-84z" />
    <glyph glyph-name="l" unicode="l" horiz-adv-x="393" 
d="M158 0v1516h82v-1516h-82z" />
    <glyph glyph-name="m" unicode="m" horiz-adv-x="1316" 
d="M135 0l0.000976562 845.999h84v-84c40.667 64 107 96 199 96c109.333 0 189.666 -44.333 240.999 -133c49.333 88.667 129.333 133 240 133c84.667 0 153 -24 205 -72c52 -49.333 78 -116.666 78 -201.999v-584h-84v584c0 52 -17.167 97 -51.5 135s-83.5 57 -147.5 57
c-132.667 0 -199 -64 -199 -192v-584h-84v584c0 57.333 -19 103 -57 137c-39.333 36.667 -86.333 55 -141 55c-56 0 -103.333 -17.667 -142 -53c-38 -34 -57 -80.333 -57 -139v-584h-84z" />
    <glyph glyph-name="n" unicode="n" horiz-adv-x="923" 
d="M135 0v846.001h84v-103c38 75.333 119.333 113 244 113c105.333 0 185.833 -30 241.5 -90s83.5 -144 83.5 -252v-514h-83v506c0 178.667 -80.667 268 -242 268c-79.333 0 -139.333 -23 -180 -69c-42 -46.667 -63.333 -110.334 -64 -191.001v-514h-84z" />
    <glyph glyph-name="o" unicode="o" horiz-adv-x="1019" 
d="M72 422c0 121.333 42.334 224.333 127.001 309c83.333 86 186.333 129 309 129c121.333 0 224.333 -42.333 309 -127s127 -188.334 127 -311.001s-41.667 -225.667 -125 -309c-84.667 -84.667 -188.334 -127 -311.001 -127s-225.667 41.667 -309 125
c-84.667 84.667 -127 188.334 -127 311.001zM154.001 422c0 -96.667 34.668 -179.833 104.001 -249.5s152.666 -104.5 249.999 -104.5c98 0 181.333 34 250 102c69.333 70 104 154 104 252c0 100 -34 184 -102 252c-68 69.333 -152 104 -252 104
c-95.333 0 -178 -35.333 -248 -106c-70.667 -70.667 -106 -154 -106 -250z" />
    <glyph glyph-name="p" unicode="p" horiz-adv-x="1050" 
d="M131 -397l0.000976562 1243h84v-160c87.333 114.667 203.333 172 348 172c122.667 0 225.667 -41.667 309 -125c84.667 -84.667 127 -188.334 127 -311.001s-41.667 -225.667 -125 -309c-84.667 -84.667 -188.334 -127 -311.001 -127
c-140.667 0 -256.667 57.333 -348 172v-555h-84zM209.001 422.001c0 -96.667 34.832 -179.834 104.499 -249.501s152.834 -104.5 249.501 -104.5c98 0 181.333 34 250 102c70 70 105 154 105 252c0 96.667 -34.833 179.834 -104.5 249.501s-153.167 104.5 -250.5 104.5
c-98 0 -181.333 -34 -250 -102c-69.333 -69.333 -104 -153.333 -104 -252z" />
    <glyph glyph-name="q" unicode="q" horiz-adv-x="1028" 
d="M61 422c0 122.667 41.666 225.666 124.999 308.999c84.667 84.667 188.667 127 312 127c136.667 0 251.334 -55.333 344.001 -166v154h84v-1243h-84v549c-90 -110.667 -204.667 -166 -344 -166c-122.667 0 -226 41.667 -310 125
c-84.667 84.667 -127 188.334 -127 311.001zM142.999 421.999c0 -96.667 34.834 -179.834 104.501 -249.501s153.167 -104.5 250.5 -104.5c98 0 181.333 34 250 102c69.333 70 104 154 104 252c0 96.667 -34.833 179.834 -104.5 249.501s-152.834 104.5 -249.501 104.5
c-98 0 -181.333 -34 -250 -102c-69.333 -69.333 -104.333 -153.333 -105 -252z" />
    <glyph glyph-name="r" unicode="r" horiz-adv-x="634" 
d="M135 0l-0.000976562 846h84v-115c18 31.333 41.333 60 70 86s60 39 94 39c42 0 76.667 -4.83301 104 -14.5s58.333 -26.5 93 -50.5l-45 -70c-22 16.667 -45.333 29.667 -70 39s-50.667 14 -78 14c-23.333 0 -45.166 -7.16699 -65.499 -21.5s-38 -32 -53 -53
s-27 -44.5 -36 -70.5s-13.5 -50 -13.5 -72v-557h-84z" />
    <glyph glyph-name="s" unicode="s" horiz-adv-x="677" 
d="M59 162l71.9971 42.999c23.333 -42 51.333 -75 84 -99c33.333 -25.333 78.333 -38 135 -38h4c128.667 0 193 54.333 193 163c0 48 -22.667 89.667 -68 125c-13.333 8 -32.666 17.167 -57.999 27.5l-93 36.5c-68 24.667 -117.333 49.334 -148 74.001
c-43.333 34.667 -65 84.667 -65 150c0 59.333 21.667 109.666 65 150.999c42 42 97.333 63 166 63c94 0 174 -32.667 240 -98l-62 -53c-46 46 -104.333 69 -175 69h-3c-98 0 -147 -43 -147 -129c0 -38 15 -69.333 45 -94c24.667 -19.333 63.334 -37.666 116.001 -54.999
c46.667 -16.667 85 -32.167 115 -46.5s52.667 -26.833 68 -37.5c58.667 -45.333 88 -106.333 88 -183c0 -74 -26.667 -133.333 -80 -178c-54 -46 -118.667 -69 -194 -69h-3c-131.333 0 -229.666 59.333 -294.999 178z" />
    <glyph glyph-name="t" unicode="t" horiz-adv-x="512" 
d="M63 762v84h115v371h84v-371h197v-84h-197v-762h-84v762h-115z" />
    <glyph glyph-name="u" unicode="u" horiz-adv-x="878" 
d="M125 317v528.999h84v-529c0 -80.667 17.667 -142.667 53 -186c36 -43.333 93.333 -65 172 -65h4c157.333 0 236 83.667 236 251v529h82v-529c0 -104 -27.333 -185 -82 -243c-56 -60 -134.667 -90 -236 -90c-100 0 -177.167 29.333 -231.5 88s-81.5 140.334 -81.5 245.001
z" />
    <glyph glyph-name="v" unicode="v" horiz-adv-x="890" 
d="M55 846h90l308 -674l309 674h94l-401 -883z" />
    <glyph glyph-name="w" unicode="w" horiz-adv-x="1400" 
d="M59 846h91l284 -656l273 682l270 -679l283 653h94l-383 -883l-264 676l-269 -676z" />
    <glyph glyph-name="x" unicode="x" horiz-adv-x="739" 
d="M33 0l289 426l-283 420h98l236 -350l233 350h99l-281 -418l287 -428h-99l-239 354l-240 -354h-100z" />
    <glyph glyph-name="y" unicode="y" horiz-adv-x="911" 
d="M57 846h90l316 -668l311 668h92l-577 -1243h-94l219 475z" />
    <glyph glyph-name="z" unicode="z" horiz-adv-x="935" 
d="M94 0l604 766h-569v80h739l-600 -762h590v-84h-764z" />
    <glyph glyph-name="braceleft" unicode="{" horiz-adv-x="395" 
d="M16 727c61.333 49.333 92.334 110.669 93.001 184.002v375c0 91.333 19 155.666 57 192.999c38 38 103.333 57 196 57v-76c-65.333 0 -111 -13 -137 -39c-27.333 -27.333 -41 -72.333 -41 -135v-375c0 -75.333 -28 -136.666 -84 -183.999c22 -22 41.333 -50.667 58 -86
c18 -34 26.667 -66.667 26 -98v-408c0 -66.667 13 -110.334 39 -131.001c26 -22 73.333 -33 142 -33v-75c-92.667 0 -158.334 16.333 -197.001 49c-39.333 32.667 -59 94.667 -59 186v412c0 32.667 -10.333 68.667 -31 108c-9.33301 19.333 -30 44.666 -62 75.999z" />
    <glyph glyph-name="bar" unicode="|" horiz-adv-x="272" 
d="M111 -94v1640h71v-1640h-71z" />
    <glyph glyph-name="braceright" unicode="}" horiz-adv-x="395" 
d="M31 -29c66.667 0 113.667 10.333 141 31c26 22 39 66.333 39 133v408c0 62.667 28 124 84 184c-26 22 -46.5 48 -61.5 78s-22.5 65.333 -22.5 106v375c0 62.667 -13.667 107.667 -41 135c-26 26 -71.667 39 -137 39v76c90 0 154.833 -19.833 194.5 -59.5
s59.5 -103.167 59.5 -190.5v-375c0 -38 10 -75.333 30 -112c10 -16.667 30.667 -40.667 62 -72c-23.333 -19.333 -43.333 -44 -60 -74c-22 -38 -32.667 -74.667 -32 -110v-412c0 -91.333 -19.333 -153.333 -58 -186c-39.333 -32.667 -105.333 -49 -198 -49v75z" />
    <glyph glyph-name="asciitilde" unicode="~" horiz-adv-x="878" 
d="M61 709c69.333 69.333 149.334 104.001 240.001 104.001c26 0 51.333 -4 76 -12l82 -37l69 -33l35 -10l37 -4c57.333 0 110 24.667 158 74l65 -56c-64 -68 -137 -102 -219 -102c-38 0 -65.333 3.33301 -82 10l-84 39l-51 27
c-28.667 15.333 -57.334 22.666 -86.001 21.999c-38 0 -74 -8 -108 -24l-35 -23l-39 -35z" />
    <glyph glyph-name="uni00A0" unicode="&#xa0;" horiz-adv-x="522" 
 />
    <glyph glyph-name="exclamdown" unicode="&#xa1;" horiz-adv-x="417" 
d="M137 1245c0 40.667 24.667 65.334 74 74.001c19.333 0 36.333 -7.66699 51 -23c11.333 -10.667 19 -27.667 23 -51c0 -40.667 -24.667 -65.334 -74 -74.001c-49.333 0 -74 24.667 -74 74zM172 -152v1160h82v-1160h-82z" />
    <glyph glyph-name="cent" unicode="&#xa2;" horiz-adv-x="866" 
d="M78 719c0 113.333 32.667 208.334 98 285.001c66.667 78 156 123.667 268 137v102h86v-100c45.333 0 86.333 -7.66699 123 -23c40.667 -12 76.334 -31.667 107.001 -59v-100l-53 34l-54 31c-45.333 19.333 -86.333 29 -123 29v-668c69.333 0 144.666 28 225.999 84v-94
c-24.667 -16.667 -57.667 -33 -99 -49l-61 -15l-66 -6v-119h-86v121c-108 0 -199.333 47.333 -274 142c-61.333 75.333 -92 164.666 -92 267.999zM168 719.001c0 -87.333 24.667 -160.333 74 -219c50.667 -60 118 -97 202 -111v664c-82 -12 -148.667 -49 -200 -111
c-50.667 -62.667 -76 -137 -76 -223z" />
    <glyph glyph-name="sterling" unicode="&#xa3;" horiz-adv-x="970" 
d="M80 55c20.667 28.667 49.9951 53.9961 87.9951 75.9961c39.333 23.333 75.333 35 108 35c112 112 168 223.333 168 334h-219v88h213c-8 40.667 -37.333 95.334 -88 164.001l-76 104l-81 145c-23.333 57.333 -35 110 -35 158c0 101.333 34.667 180 104 236
c66.667 52 151.334 78 254.001 78c101.333 0 183.333 -23.333 246 -70c69.333 -52 104 -126.333 104 -223h-82c0 72.667 -28 127 -84 163c-45.333 31.333 -106.666 47.333 -183.999 48c-178.667 0 -268 -77.333 -268 -232l6 -65c10.667 -52 42.667 -117.667 96 -197
l107 -160c32.667 -49.333 55.667 -99 69 -149h234v-88h-230c0 -61.333 -13.667 -121.666 -41 -180.999c-28.667 -57.333 -64 -107 -106 -149l31 -2l35 -14c30 -12 54.333 -24.333 73 -37l78 -35c24.667 -8 51.334 -12 80.001 -12c64 0 124.667 28.667 182 86l56 -54
c-13.333 -13.333 -27.666 -26.166 -42.999 -38.499s-32.666 -25.166 -51.999 -38.499c-44 -24.667 -91.667 -37 -143 -37c-65.333 0 -130.333 19 -195 57c-20.667 12 -39.667 20.333 -57 25l-47 12l-47 4c-35.333 1.33301 -74.333 -7 -117 -25
c-22 -9.33301 -50 -30.333 -84 -63z" />
    <glyph glyph-name="yen" unicode="&#xa5;" horiz-adv-x="1052" 
d="M68 1462h96l360 -635l365 635h96l-412 -721h203v-84h-209v-92h209v-84h-209v-481h-84v481h-207v84h207v92h-207v84h201z" />
    <glyph glyph-name="brokenbar" unicode="&#xa6;" horiz-adv-x="272" 
d="M111 0v670h71v-670h-71zM111 893v653h71v-653h-71z" />
    <glyph glyph-name="section" unicode="&#xa7;" horiz-adv-x="778" 
d="M76 707c0 83.333 21.667 150.668 65 202.001c23.333 28.667 64.333 58.667 123 90c-96.667 56 -145 134.667 -145 236c0 75.333 24.667 136.666 74 183.999c52 48 114.667 72 188 72c117.333 0 204.666 -57.333 261.999 -172l-61 -41c-49.333 90 -116.333 135 -201 135
c-49.333 0 -91 -16.333 -125 -49c-34 -34 -51 -75.667 -51 -125c0 -112 62.667 -178.333 188 -199c210.667 -34 316 -143 316 -327c0 -120 -59 -214.333 -177 -283c92.667 -52 139.334 -140.667 140.001 -266c0 -82 -27.333 -146.333 -82 -193
c-56 -48 -125.667 -71.667 -209 -71c-69.333 0 -128 17.667 -176 53s-84.333 85 -109 149l76 35c18 -44 42.667 -81.333 74 -112c30 -30 75 -45 135 -45c57.333 0 104.333 16.333 141 49c38 32.667 57.333 77.667 58 135c0 139.333 -72.667 217.666 -218 234.999
c-80.667 10.667 -148 44.334 -202 101.001c-56 58.667 -84 127.667 -84 207zM170 717.002c0 -64 21.833 -115.833 65.5 -155.5s96.167 -59.5 157.5 -59.5c64 0 117.333 17.667 160 53c42 37.333 63 88 63 152c0 150 -79.667 225 -239 225
c-61.333 0 -111.333 -20.667 -150 -62c-38 -39.333 -57 -90.333 -57 -153z" />
    <glyph glyph-name="dieresis" unicode="&#xa8;" horiz-adv-x="878" 
d="M242 1065c0 36.667 22.332 59.333 66.999 68c34.667 0 57.334 -22.667 68.001 -68c0 -45.333 -22.667 -68 -68 -68c-15.333 0 -31 6.33301 -47 19c-12 12 -18.667 28.333 -20 49zM521.999 1065c0 36.667 22.667 59.333 68 68c34 0 56.333 -22.667 67 -68
c0 -45.333 -22.333 -68 -67 -68c-15.333 0 -31 6.33301 -47 19c-12 12 -19 28.333 -21 49z" />
    <glyph glyph-name="copyright" unicode="&#xa9;" horiz-adv-x="1204" 
d="M70 797c0 150 51.666 277.001 154.999 381.001c105.333 105.333 233 157.666 383 156.999c147.333 0 274.333 -51.667 381 -155c105.333 -105.333 158 -233 158 -383c0 -147.333 -52 -274.333 -156 -381c-105.333 -105.333 -233 -158 -383 -158s-277 52 -381 156
c-105.333 105.333 -157.666 233 -156.999 383zM112.999 799.001c0 -139.333 47.666 -256.998 142.999 -352.998c96.667 -96.667 214.667 -145 354 -145s257 47.667 353 143c96.667 97.333 145 215.666 145 354.999s-47.667 256.666 -143 351.999
c-96.667 96.667 -215 145 -355 145c-139.333 0 -256.666 -47.667 -351.999 -143c-96.667 -96.667 -145 -214.667 -145 -354zM341.998 807.003c0 76.667 25.333 136.001 76 178.001c50.667 45.333 114 68 190 68c52 0 91.667 -7 119 -21l35 -16l41 -25v-49l-37 25l-41 20
c-20.667 10.667 -39.667 17 -57 19l-60 6c-64 0 -117 -18.667 -159 -56c-44 -36.667 -66 -86.334 -66 -149.001c0 -57.333 19 -105.666 57 -144.999c38 -40.667 94 -61.334 168 -62.001c82 0 147 26.667 195 80v-49c-48 -48 -113 -72 -195 -72
c-75.333 0 -138 22.667 -188 68c-52 48 -78 108 -78 180z" />
    <glyph glyph-name="ordfeminine" unicode="&#xaa;" horiz-adv-x="763" 
d="M102 688v60h582v-60h-582zM119 1122c0 72.667 24.667 135 74 187c50.667 50.667 112.667 75.667 186 75c83.333 0 151 -32 203 -96v88h51v-508h-51v88c-49.333 -64 -117 -96 -203 -96c-74 0 -135.333 25.333 -184 76c-50.667 50.667 -76 112.667 -76 186zM168 1122
c0 -57.333 20.332 -106.998 60.999 -148.998c42 -42 92 -63.333 150 -64c57.333 0 107.166 21.167 149.499 63.5s63.5 92.166 63.5 149.499s-21.167 107.166 -63.5 149.499s-92.166 63.5 -149.499 63.5s-106.666 -21 -147.999 -63c-42 -42 -63 -92 -63 -150z" />
    <glyph glyph-name="guillemotleft" unicode="&#xab;" horiz-adv-x="899" 
d="M78 522l387 387l41 -43l-344 -344l336 -336l-43 -43zM375 522l385 387l43 -43l-346 -344l338 -336l-43 -43z" />
    <glyph glyph-name="logicalnot" unicode="&#xac;" horiz-adv-x="802" 
d="M131 725v53h520v-53h-520zM205 168c0 84.667 41.001 142.669 123.001 174.002c-30 9.33301 -54 28.333 -72 57c-19.333 31.333 -29 63 -29 95c0 49.333 15.833 89.666 47.5 120.999s72.5 47 122.5 47c49.333 0 89.666 -15.833 120.999 -47.5s47 -71.834 47 -120.501
c0 -34 -8.66699 -65 -26 -93c-20.667 -34 -46 -53.667 -76 -59c84.667 -31.333 127 -89.333 127 -174c0 -54.667 -17.667 -99.667 -53 -135c-35.333 -34 -82 -51 -140 -51c-58.667 0 -105.667 17.667 -141 53c-34 34 -51 78.333 -51 133zM242.001 168.002
c0 -45.333 15 -81 45 -107c30 -28.667 66.667 -43 110 -43c42 0 79 14.333 111 43c30 29.333 45 65 45 107s-15 78.167 -45 108.5s-67 45.5 -111 45.5c-42 0 -78 -15.333 -108 -46c-31.333 -31.333 -47 -67.333 -47 -108zM264.001 494.002
c0 -36.667 12.999 -67.6689 38.999 -93.002c26 -26 57.333 -39 94 -39s67.334 12.333 92.001 37c26 26.667 39 58.334 39 95.001s-12 67.334 -36 92.001c-26 26 -57.667 39 -95 39c-36.667 0 -68 -12.333 -94 -37c-26 -26 -39 -57.333 -39 -94zM272 1479l25 39h123v-660h-37
v621h-111z" />
    <glyph glyph-name="uni00AD" unicode="&#xad;" horiz-adv-x="555" 
d="M37 500v84h432v-84h-432z" />
    <glyph glyph-name="registered" unicode="&#xae;" horiz-adv-x="817" 
d="M84 1104c0 90 31.332 166.333 93.999 229s139.334 94 230.001 94c90 0 166.333 -31.333 229 -94s94 -139 94 -229s-31.333 -166.5 -94 -229.5s-139 -94.5 -229 -94.5s-166.5 31.5 -229.5 94.5s-94.5 139.5 -94.5 229.5zM114.999 1104c0 -78 29.333 -146.333 88 -205
s127 -88 205 -88s146.167 29.333 204.5 88s87.5 127 87.5 205s-29.333 146.333 -88 205s-126.667 88 -204 88c-78 0 -146.333 -29.333 -205 -88s-88 -127 -88 -205zM294.999 926v372h143c31.333 0 56 -8.66699 74 -26c20.667 -19.333 31 -44 31 -74
c0 -66.667 -35 -100 -105 -100h-16l121 -172h-37l-119 172h-63v-172h-29zM323.999 1126h116c49.333 0 74 24 74 72s-24.667 72 -74 72h-116v-144z" />
    <glyph glyph-name="macron" unicode="&#xaf;" horiz-adv-x="804" 
d="M117 971v73h583v-73h-583z" />
    <glyph glyph-name="degree" unicode="&#xb0;" horiz-adv-x="434" 
d="M47 1260c0 45.333 17.167 85 51.5 119s73.833 51 118.5 51c45.333 0 85 -17 119 -51s51 -73.667 51 -119s-17 -85 -51 -119s-73.667 -51 -119 -51s-85 17 -119 51s-51 73.667 -51 119zM90 1262c0 -32.667 13 -62 39 -88s55.333 -39 88 -39s62 13 88 39s39 55.333 39 88
s-13 62 -39 88s-55.333 39 -88 39s-62 -13 -88 -39s-39 -55.333 -39 -88z" />
    <glyph glyph-name="plusminus" unicode="&#xb1;" horiz-adv-x="794" 
d="M137 291v84h527v-84h-527zM137 662v83h209v209h94v-209h209v-83h-209v-209h-94v209h-209z" />
    <glyph glyph-name="uni00B2" unicode="&#xb2;" horiz-adv-x="802" 
d="M209 856l320.999 373c26 39.333 39 77.333 39 114c0 38 -15.667 70.833 -47 98.5s-66.666 41.5 -105.999 41.5c-75.333 0 -126 -39.667 -152 -119h-41c6.66699 46.667 28.667 83.667 66 111c38 30 80.333 45 127 45c50.667 0 95.667 -16.667 135 -50
c38 -32.667 57 -75 57 -127c0 -42 -13 -85 -39 -129c-10.667 -16.667 -40 -52 -88 -106l-190 -215h315v-37h-397z" />
    <glyph glyph-name="uni00B3" unicode="&#xb3;" horiz-adv-x="802" 
d="M227 999l41.001 0.00195312c8 -24.667 24.333 -48.334 49 -71.001c26 -23.333 56.333 -35 91 -35c39.333 0 74 13.667 104 41c28.667 28.667 43 63.334 43 104.001c0 50.667 -17.667 89.667 -53 117c-15.333 12 -29 20.333 -41 25l-43 8h-39v53h39
c39.333 0 70.666 11.667 93.999 35l25 39l8 51c0 38 -12.333 68.667 -37 92c-24.667 24.667 -56 37 -94 37c-76.667 0 -121 -39 -133 -117h-43c4 49.333 22.333 87 55 113c32.667 28.667 73 43 121 43c49.333 0 91 -15 125 -45s51 -71 51 -123c0 -79.333 -41 -130 -123 -152
c86 -24.667 129 -83.334 129 -176.001c0 -54.667 -17.667 -98.334 -53 -131.001c-34 -34 -79 -51 -135 -51c-94 0 -154.333 47.667 -181 143z" />
    <glyph glyph-name="acute" unicode="&#xb4;" horiz-adv-x="835" 
d="M319 1010l273 272l49 -49l-272 -272z" />
    <glyph glyph-name="uni00B5" unicode="&#xb5;" horiz-adv-x="1607" 
d="M125 0l717.002 829.001c57.333 82 86 167.333 86 256c0 86 -34.333 159.333 -103 220c-68 58.667 -147 88 -237 88c-110.667 0 -197.334 -35.667 -260.001 -107c-38 -42 -64.667 -94.667 -80 -158h-92c9.33301 70.667 44.666 141 105.999 211
c82 90 190.667 135.333 326 136c116 0 215.667 -36.333 299 -109c83.333 -71.333 125 -165 125 -281c0 -118.667 -44.333 -235.334 -133 -350.001c-12 -15.333 -30.5 -37.5 -55.5 -66.5l-94.5 -109.5l-420 -475h701v-84h-885zM354.002 911.001c0 45.333 17.167 85 51.5 119
s73.833 51 118.5 51c45.333 0 85 -17 119 -51s51 -73.667 51 -119s-17 -85 -51 -119s-73.667 -51 -119 -51s-85 17.167 -119 51.5s-51 73.833 -51 118.5zM397.002 913.001c0 -32.667 13 -62 39 -88s55.333 -39 88 -39s62 13 88 39s39 55.333 39 88s-13 62 -39 88
s-55.333 39 -88 39s-62 -12.833 -88 -38.5s-39 -55.167 -39 -88.5zM500.002 879.001c0 12 4.33203 22.5 12.999 31.5s19.334 13.5 32.001 13.5c12 0 22.5 -4.5 31.5 -13.5s13.5 -19.5 13.5 -31.5s-4.5 -22.5 -13.5 -31.5s-19.5 -13.5 -31.5 -13.5s-22.5 4.5 -31.5 13.5
s-13.5 19.5 -13.5 31.5zM760.001 -263.999l43 49c53.333 -53.333 115.333 -80 186 -80c65.333 0 123.333 25.333 174 76l37 -45c-52 -60 -125 -90 -219 -90c-91.333 0 -165 30 -221 90zM1092 911.001c0 45.333 17 85 51 119s73.667 51 119 51s85 -17 119 -51
s51 -73.667 51 -119s-17.167 -85 -51.5 -119s-73.833 -51 -118.5 -51c-45.333 0 -85 17.167 -119 51.5s-51 73.833 -51 118.5zM1135 913.001c0 -32.667 12.833 -62 38.5 -88s55.167 -39 88.5 -39c32.667 0 62 13 88 39s39 55.333 39 88s-13 62 -39 88s-55.333 39 -88 39
s-62 -12.833 -88 -38.5s-39 -55.167 -39 -88.5zM1239 872.001c0 12 4.50098 22.667 13.501 32s19.5 14 31.5 14s22.5 -4.5 31.5 -13.5s13.5 -19.833 13.5 -32.5c0 -12 -4.33301 -22.5 -13 -31.5s-19.334 -13.5 -32.001 -13.5c-12 0 -22.5 4.5 -31.5 13.5
s-13.5 19.5 -13.5 31.5z" />
    <glyph glyph-name="paragraph" unicode="&#xb6;" horiz-adv-x="1034" 
d="M100 1096c0 109.333 39 198.667 117 268c74 65.333 167.667 98 281 98h221v-1587h-84v856h-137c-114.667 0 -209.667 32.833 -285 98.5s-113 154.5 -113 266.5zM829 -124.999v1587h84v-1587h-84z" />
    <glyph glyph-name="periodcentered" unicode="&#xb7;" horiz-adv-x="565" 
d="M141 664c0 36.667 22.667 58.999 68 66.999c34 0.666992 56.333 -21.666 67 -66.999c0 -45.333 -22.333 -68 -67 -68c-15.333 0 -31 6 -47 18c-12 12 -19 28.667 -21 50z" />
    <glyph glyph-name="cedilla" unicode="&#xb8;" horiz-adv-x="532" 
d="M147 -176c5.33301 -5.33301 11.834 -10.5 19.501 -15.5s16.5 -10.167 26.5 -15.5l49 -14c38 0 57 16.333 57 49c0 28.667 -24.667 52.667 -74 72l33 100h92l-28 -84c51.333 -16.667 77 -53 77 -109c0 -34 -10.833 -61.833 -32.5 -83.5s-50.167 -32.5 -85.5 -32.5
c-50.667 0 -95.334 17 -134.001 51v82z" />
    <glyph glyph-name="uni00B9" unicode="&#xb9;" horiz-adv-x="802" 
d="M301 1479l25 39h123v-660h-37v621h-111z" />
    <glyph glyph-name="ordmasculine" unicode="&#xba;" horiz-adv-x="763" 
d="M94 688v60h578v-60h-578zM121 1130c0 74 25.167 136.333 75.5 187s112.5 76 186.5 76s136.167 -25.333 186.5 -76s75.5 -113 75.5 -187s-25.167 -136.167 -75.5 -186.5s-112.5 -75.5 -186.5 -75.5s-136.167 25.333 -186.5 76s-75.5 112.667 -75.5 186zM170 1130
c0 -57.333 21.167 -106.999 63.5 -148.999s92.166 -63 149.499 -63s107.166 21 149.499 63s63.5 91.667 63.5 149s-21.167 107.166 -63.5 149.499s-92.166 63.5 -149.499 63.5s-107.166 -21 -149.499 -63s-63.5 -92 -63.5 -150z" />
    <glyph glyph-name="guillemotright" unicode="&#xbb;" horiz-adv-x="899" 
d="M111 866l41 43l387 -387l-377 -379l-43 43l336 336zM418 866l41 43l387 -387l-377 -379l-43 43l336 336z" />
    <glyph glyph-name="onequarter" unicode="&#xbc;" horiz-adv-x="802" 
d="M156 123l376 543v-506h58v-37h-58v-125h-38v125h-338zM162 725v53h520v-53h-520zM223 160h271v383zM301 1479l25 39h123v-660h-37v621h-111z" />
    <glyph glyph-name="onehalf" unicode="&#xbd;" horiz-adv-x="802" 
d="M166 725v53h520v-53h-520zM217 0l322.001 372.999c26 39.333 39 77.333 39 114c0 38 -15.833 70.833 -47.5 98.5s-67.167 41.5 -106.5 41.5c-75.333 0 -126 -39.667 -152 -119h-41c6.66699 46.667 28.667 83.334 66 110.001c38 30 80.333 45.333 127 46
c50.667 0 95.667 -16.667 135 -50c38 -32.667 57 -75 57 -127c0 -42 -12.667 -85 -38 -129c-10.667 -16.667 -40.334 -52 -89.001 -106l-190 -215h315v-37h-397zM313.001 1479l25 39h123v-660h-37v621h-111z" />
    <glyph glyph-name="threequarters" unicode="&#xbe;" horiz-adv-x="802" 
d="M147 725v53h523v-53h-523zM164 123l377 543v-506h57v-37h-57v-125h-39v125h-338zM227 999l41.001 0.00195312c8 -24.667 24.333 -48.334 49 -71.001c26 -23.333 56.333 -35 91 -35c39.333 0 74 13.667 104 41c28.667 28.667 43 63.334 43 104.001
c0 50.667 -17.667 89.667 -53 117c-15.333 12 -29 20.333 -41 25l-43 8h-39v53h39c39.333 0 70.666 11.667 93.999 35l25 39l8 51c0 38 -12.333 68.667 -37 92c-24.667 24.667 -56 37 -94 37c-76.667 0 -121 -39 -133 -117h-43c4 49.333 22.333 87 55 113
c32.667 28.667 73 43 121 43c49.333 0 91 -15 125 -45s51 -71 51 -123c0 -79.333 -41 -130 -123 -152c86 -24.667 129 -83.334 129 -176.001c0 -54.667 -17.667 -98.334 -53 -131.001c-34 -34 -79 -51 -135 -51c-94 0 -154.333 47.667 -181 143zM231.001 160.002h271v383z
" />
    <glyph glyph-name="questiondown" unicode="&#xbf;" horiz-adv-x="960" 
d="M76 147c0 83.333 30.6641 160 91.9971 230c6.66699 9.33301 24.334 25 53.001 47l117 86l172 125c68 49.333 102 109.333 102 180c0 32.667 -11.5 58.667 -34.5 78s-51.5 29 -85.5 29c-32.667 0 -57.334 -3.66699 -74.001 -11c-19.333 -4 -38 -14.667 -56 -32l-49 67
c40.667 40.667 100.334 61.334 179.001 62.001c58.667 0 108.334 -17.333 149.001 -52c40.667 -35.333 61 -82.333 61 -141c0 -88.667 -47.667 -168.667 -143 -240l-174 -129l-98 -75.5c-26 -20.333 -44.667 -37.5 -56 -51.5c-48 -56 -71.667 -113.333 -71 -172
c0 -76.667 32 -135.334 96 -176.001c54.667 -35.333 121.667 -53 201 -53c82 0 154.333 26 217 78c19.333 16.667 38.5 37.167 57.5 61.5s37.833 52.833 56.5 85.5l78 -34c-75.333 -181.333 -211.666 -272.333 -408.999 -273c-112 0 -201 24 -267 72
c-76.667 53.333 -114.667 133 -114 239zM429.997 1253c0 39.333 24 63.333 72 72c39.333 0 63 -24 71 -72c0 -39.333 -23.667 -63 -71 -71c-39.333 0 -63.333 23.667 -72 71z" />
    <glyph glyph-name="Agrave" unicode="&#xc0;" horiz-adv-x="1296" 
d="M63 0l584 1509l586 -1509h-84l-168 438h-666l-170 -438h-82zM348 522h598l-299 774zM414 1784l41 45l247 -248l-47 -41z" />
    <glyph glyph-name="Aacute" unicode="&#xc1;" horiz-adv-x="1296" 
d="M63 0l584 1509l586 -1509h-84l-168 438h-666l-170 -438h-82zM348 522h598l-299 774zM604 1583l227 229l41 -40l-229 -228z" />
    <glyph glyph-name="Acircumflex" unicode="&#xc2;" horiz-adv-x="1296" 
d="M63 0l584 1509l586 -1509h-84l-168 438h-666l-170 -438h-82zM348 522h598l-299 774zM403 1550l248 248l248 -248l-43 -43l-205 203l-205 -203z" />
    <glyph glyph-name="Atilde" unicode="&#xc3;" horiz-adv-x="1286" 
d="M63 0l584 1509l586 -1509h-84l-168 438h-666l-170 -438h-82zM317 1593c38 69.333 102.997 104.333 194.997 105c34 0 69.333 -7 106 -21l16.5 -8c5.66699 -2.66699 11.834 -6 18.501 -10l60 -25l71 -8h47l25 8c10.667 4 30.334 20.333 59.001 49l60 -45l-39 -41l-33 -26
c-31.333 -19.333 -68 -29 -110 -29c-64 0 -116.667 12.333 -158 37l-60 25c-19.333 8 -43.666 12 -72.999 12c-50.667 0 -93 -22.667 -127 -68zM347.997 522h598l-299 774z" />
    <glyph glyph-name="Adieresis" unicode="&#xc4;" horiz-adv-x="1286" 
d="M63 0l584 1509l586 -1509h-84l-168 438h-666l-170 -438h-82zM348 522h598l-299 774zM432 1630c0 36.667 22.667 59.332 68 67.999c34 0 56.333 -22.667 67 -68c0 -45.333 -22.333 -67.666 -67 -66.999c-15.333 0 -31 6 -47 18c-12 12 -19 28.333 -21 49zM713 1630
c0 36.667 22.332 59.332 66.999 67.999c34.667 0 57.334 -22.667 68.001 -68c0 -45.333 -22.667 -67.666 -68 -66.999c-15.333 0 -31 6 -47 18c-12 12 -18.667 28.333 -20 49z" />
    <glyph glyph-name="Aring" unicode="&#xc5;" horiz-adv-x="1296" 
d="M63 0l584 1509l586 -1509h-84l-168 438h-666l-170 -438h-82zM348 522h598l-299 774zM508 1665c0 38 13.667 70.667 41 98s60 41 98 41s70.667 -13.667 98 -41s41 -60 41 -98s-13.5 -70.667 -40.5 -98s-59.833 -41 -98.5 -41c-38 0 -70.667 13.667 -98 41s-41 60 -41 98z
M545 1667c0 -30 9.33301 -54.665 28 -73.998c18 -20.667 42.667 -30.667 74 -30c26 0 49.333 10.667 70 32c22 22 33 46 33 72c0 27.333 -10.333 51.166 -31 71.499s-44.667 30.5 -72 30.5c-28.667 0 -52.667 -9.33301 -72 -28c-20.667 -20.667 -30.667 -45.334 -30 -74.001
z" />
    <glyph glyph-name="AE" unicode="&#xc6;" horiz-adv-x="1515" 
d="M59 0l652 1462h694v-84h-619v-532h619v-84h-621v-678h621v-84h-705v670h-260l-299 -670h-82zM479 752h221v497z" />
    <glyph glyph-name="Ccedilla" unicode="&#xc7;" horiz-adv-x="1437" 
d="M102 731c0 221.333 69.6699 401.667 209.003 541c140.667 140.667 321.667 211 543 211c125.333 0 238.666 -18.667 339.999 -56c60 -23.333 118 -56.666 174 -99.999v-104c-57.333 48 -120 86 -188 114c-104 42 -212.667 63.333 -326 64
c-194 0 -353.833 -62.833 -479.5 -188.5s-188.5 -286.167 -188.5 -481.5s62.333 -355 187 -479c125.333 -125.333 285.666 -188.333 480.999 -189c121.333 0 227 22 317 66c52 26 117.667 67.667 197 125v-96l-100 -72l-68 -43c-90 -42 -195.667 -63 -317 -63l-23 -58
c42 -30 63.333 -66 64 -108c0 -82 -41.667 -123 -125 -123c-54.667 0 -101.334 19 -140.001 57l33 68c22 -26 49.333 -39 82 -39c38 0 57 16.333 57 49c0 15.333 -6.66699 31.166 -20 47.499s-29 26.5 -47 30.5l33 76c-186 0 -352 75 -498 225
c-131.333 136.667 -197 312 -197 526z" />
    <glyph glyph-name="Egrave" unicode="&#xc8;" horiz-adv-x="968" 
d="M145 0v1462h703v-84h-619v-532h619v-90h-619v-672h619v-84h-703zM254 1784l43 45l246 -248l-45 -41z" />
    <glyph glyph-name="Eacute" unicode="&#xc9;" horiz-adv-x="968" 
d="M145 0v1462h703v-84h-619v-532h619v-90h-619v-672h619v-84h-703zM453 1579l229 238l43 -45l-229 -228z" />
    <glyph glyph-name="Ecircumflex" unicode="&#xca;" horiz-adv-x="968" 
d="M145 0v1462h703v-84h-619v-532h619v-90h-619v-672h619v-84h-703zM258 1591l248 248l246 -248l-41 -43l-205 203l-205 -203z" />
    <glyph glyph-name="Edieresis" unicode="&#xcb;" horiz-adv-x="968" 
d="M145 0v1462h703v-84h-619v-532h619v-90h-619v-672h619v-84h-703zM293 1630c0 36.667 22.332 59.332 66.999 67.999c34.667 0 57.334 -22.667 68.001 -68c0 -45.333 -22.667 -67.666 -68 -66.999c-15.333 0 -31 6 -47 18c-12 12 -18.667 28.333 -20 49zM572.999 1630
c0 36.667 22.666 59.332 67.999 67.999c34.667 0 57.334 -22.667 68.001 -68c0 -45.333 -22.667 -67.666 -68 -66.999c-15.333 0 -31 6 -47 18c-12 12 -19 28.333 -21 49z" />
    <glyph glyph-name="Igrave" unicode="&#xcc;" horiz-adv-x="393" 
d="M-25 1784l43 45l246 -248l-45 -41zM158 0v1462h82v-1462h-82z" />
    <glyph glyph-name="Iacute" unicode="&#xcd;" horiz-adv-x="393" 
d="M143 1583l230 229l39 -40l-228 -228zM158 0v1462h82v-1462h-82z" />
    <glyph glyph-name="Icircumflex" unicode="&#xce;" horiz-adv-x="393" 
d="M-53 1550l250 248l245 -248l-41 -43l-204 203l-205 -203zM158 0v1462h82v-1462h-82z" />
    <glyph glyph-name="Idieresis" unicode="&#xcf;" horiz-adv-x="393" 
d="M-12 1630c0 36.667 22.332 59.332 66.999 67.999c34.667 0 57.334 -22.667 68.001 -68c0 -45.333 -22.667 -67.666 -68 -66.999c-15.333 0 -31 6 -47 18c-12 12 -18.667 28.333 -20 49zM157.999 -0.00195312v1462h82v-1462h-82zM267.999 1630
c0 36.667 22.667 59.332 68 67.999c34 0 56.333 -22.667 67 -68c0 -45.333 -22.333 -67.666 -67 -66.999c-15.333 0 -31 6 -47 18c-12 12 -19 28.333 -21 49z" />
    <glyph glyph-name="Eth" unicode="&#xd0;" horiz-adv-x="1409" 
d="M66 694l-0.000976562 84h90v684h487c196.667 0 356.334 -73.667 479.001 -221c116 -138 174 -307.333 174 -508c0 -202 -57.333 -372.667 -172 -512c-122.667 -147.333 -283 -221 -481 -221h-487v694h-90zM237.999 84l405 0.000976562c150 0 280.333 56 391 168
c118.667 120 178 280.333 178 481c0 178.667 -49.667 329 -149 451c-106.667 131.333 -246.667 196.666 -420 195.999h-405v-602h260v-84h-260v-610z" />
    <glyph glyph-name="Ntilde" unicode="&#xd1;" horiz-adv-x="1464" 
d="M158 0v1473l1091 -1280v1269h84v-1487l-1093 1266v-1241h-82zM410 1593c38 69.333 102.667 104.333 194 105c34 0 69.667 -7 107 -21l16 -8c5.33301 -2.66699 11.333 -6 18 -10l60 -25l72 -8h47l24 8c10.667 4 30.667 20.333 60 49l59 -45l-39 -41l-33 -26
c-31.333 -19.333 -68 -29 -110 -29c-64 0 -116.667 12.333 -158 37l-59 25c-19.333 8 -44 12 -74 12c-50.667 0 -93 -22.667 -127 -68z" />
    <glyph glyph-name="Ograve" unicode="&#xd2;" 
d="M102 731c0 221.333 69.666 401.666 208.999 540.999c140.667 140.667 321.667 211 543 211c220 0 401 -69.667 543 -209c140.667 -140.667 211 -321.667 211 -543s-70.333 -401.666 -211 -540.999c-140.667 -140.667 -321.667 -210.667 -543 -210
c-221.333 0 -401.666 69.333 -540.999 208c-140.667 140.667 -211 321.667 -211 543zM185.999 731c0 -195.333 62.334 -355 187.001 -479c125.333 -125.333 285.666 -188.333 480.999 -189c196.667 0 357.667 61.667 483 185c124.667 124 187 285 187 483
c0 196.667 -62.333 357 -187 481c-125.333 125.333 -286.333 188.333 -483 189c-194 0 -353.833 -62.833 -479.5 -188.5s-188.5 -286.167 -188.5 -481.5zM596 1784l41 45l248 -248l-47 -41z" />
    <glyph glyph-name="Oacute" unicode="&#xd3;" 
d="M102 731c0 221.333 69.666 401.666 208.999 540.999c140.667 140.667 321.667 211 543 211c220 0 401 -69.667 543 -209c140.667 -140.667 211 -321.667 211 -543s-70.333 -401.666 -211 -540.999c-140.667 -140.667 -321.667 -210.667 -543 -210
c-221.333 0 -401.666 69.333 -540.999 208c-140.667 140.667 -211 321.667 -211 543zM185.999 731c0 -195.333 62.334 -355 187.001 -479c125.333 -125.333 285.666 -188.333 480.999 -189c196.667 0 357.667 61.667 483 185c124.667 124 187 285 187 483
c0 196.667 -62.333 357 -187 481c-125.333 125.333 -286.333 188.333 -483 189c-194 0 -353.833 -62.833 -479.5 -188.5s-188.5 -286.167 -188.5 -481.5zM780 1583l228 229l39 -40l-228 -228z" />
    <glyph glyph-name="Ocircumflex" unicode="&#xd4;" 
d="M102 731c0 221.333 69.666 401.666 208.999 540.999c140.667 140.667 321.667 211 543 211c220 0 401 -69.667 543 -209c140.667 -140.667 211 -321.667 211 -543s-70.333 -401.666 -211 -540.999c-140.667 -140.667 -321.667 -210.667 -543 -210
c-221.333 0 -401.666 69.333 -540.999 208c-140.667 140.667 -211 321.667 -211 543zM185.999 731c0 -195.333 62.334 -355 187.001 -479c125.333 -125.333 285.666 -188.333 480.999 -189c196.667 0 357.667 61.667 483 185c124.667 124 187 285 187 483
c0 196.667 -62.333 357 -187 481c-125.333 125.333 -286.333 188.333 -483 189c-194 0 -353.833 -62.833 -479.5 -188.5s-188.5 -286.167 -188.5 -481.5zM600 1602l248 247l248 -247l-43 -43l-205 202l-205 -202z" />
    <glyph glyph-name="Otilde" unicode="&#xd5;" 
d="M102 731c0 221.333 69.666 401.666 208.999 540.999c140.667 140.667 321.667 211 543 211c220 0 401 -69.667 543 -209c140.667 -140.667 211 -321.667 211 -543s-70.333 -401.666 -211 -540.999c-140.667 -140.667 -321.667 -210.667 -543 -210
c-221.333 0 -401.666 69.333 -540.999 208c-140.667 140.667 -211 321.667 -211 543zM185.999 731c0 -195.333 62.334 -355 187.001 -479c125.333 -125.333 285.666 -188.333 480.999 -189c196.667 0 357.667 61.667 483 185c124.667 124 187 285 187 483
c0 196.667 -62.333 357 -187 481c-125.333 125.333 -286.333 188.333 -483 189c-194 0 -353.833 -62.833 -479.5 -188.5s-188.5 -286.167 -188.5 -481.5zM502 1618c38 69.333 102.668 104 194.001 104c34 0 69.667 -6.66699 107 -20l16 -8
c5.33301 -2.66699 11.666 -6.33398 18.999 -11.001l59 -24l72 -8h47l24 8c10.667 4 30.667 20.333 60 49l59 -45l-39 -41l-33 -27c-31.333 -19.333 -68 -28.666 -110 -27.999c-64 0 -116.667 12.333 -158 37l-59 24c-19.333 8 -44 12 -74 12c-50.667 0 -93 -22.333 -127 -67
z" />
    <glyph glyph-name="Odieresis" unicode="&#xd6;" 
d="M102 731c0 221.333 69.666 401.666 208.999 540.999c140.667 140.667 321.667 211 543 211c220 0 401 -69.667 543 -209c140.667 -140.667 211 -321.667 211 -543s-70.333 -401.666 -211 -540.999c-140.667 -140.667 -321.667 -210.667 -543 -210
c-221.333 0 -401.666 69.333 -540.999 208c-140.667 140.667 -211 321.667 -211 543zM185.999 731c0 -195.333 62.334 -355 187.001 -479c125.333 -125.333 285.666 -188.333 480.999 -189c196.667 0 357.667 61.667 483 185c124.667 124 187 285 187 483
c0 196.667 -62.333 357 -187 481c-125.333 125.333 -286.333 188.333 -483 189c-194 0 -353.833 -62.833 -479.5 -188.5s-188.5 -286.167 -188.5 -481.5zM639 1630c0 36.667 22.667 59.332 68 67.999c34 0 56.333 -22.667 67 -68c0 -45.333 -22.333 -67.666 -67 -66.999
c-15.333 0 -31.333 6 -48 18c-12 12 -18.667 28.333 -20 49zM920 1630c0 36.667 22.332 59.332 66.999 67.999c34.667 0 57.334 -22.667 68.001 -68c0 -45.333 -22.667 -67.666 -68 -66.999c-15.333 0 -31 6 -47 18c-12 12 -18.667 28.333 -20 49z" />
    <glyph glyph-name="multiply" unicode="&#xd7;" horiz-adv-x="1929" 
d="M14 475l19.0098 4.00195v654h84v-84c16.667 27.333 35.167 47 55.5 59s41.666 20.167 63.999 24.5s46.5 6.16602 72.5 5.49902s52.667 -1 80 -1c15.333 0 30.166 1.33301 44.499 4l41.5 8c-48 9.33301 -95 21.666 -141 36.999l2 12c23.333 -2.66699 46.166 -6 68.499 -10
s45.166 -6 68.499 -6l43 6l-86 27.5c-28.667 9 -58 16.833 -88 23.5c-4 4 -3.33301 7 2 9s12.166 3.33301 20.499 4s16.166 0.666992 23.499 0s12.333 -1 15 -1h89c30 0 59.667 2.16699 89 6.5s58 10.833 86 19.5s53.333 22 76 40l-182 -2
c-42 -1.33301 -84.5 0.333984 -127.5 5.00098s-84.5 14.667 -124.5 30v12l62 24c-19.333 -2.66699 -39.333 -4 -60 -4h-59l-6 7c44 26 91.833 39.333 143.5 40s102.167 1.66699 151.5 3c-28.667 4 -57.334 9 -86.001 15s-56.667 14.667 -84 26v12l104 45h-18l-181 12
c35.333 4 71.666 6 108.999 6c36.667 0 73 1.33301 109 4l-136 15v12l50 -4l-76 12v12c30 -4 59.333 -8.33301 88 -13s58 -7.66699 88 -9l4 -8l45 -8c26 0 51.667 3 77 9s50.333 12.333 75 19c-34 2.66699 -67.5 2.33398 -100.5 -0.999023s-66.5 -5 -100.5 -5
c-6.66699 0 -17.834 1 -33.501 3s-26.5 4.33301 -32.5 7l52 25l-21 6l-41 -8c-1.33301 6.66699 1.16699 17.167 7.5 31.5s14.166 29.666 23.499 45.999l27.5 46c9 14.333 15.5 25.166 19.5 32.499l12 -9l-71 -118l61 -19l-35 -29
c28.667 -2.66699 57.334 -1.83398 86.001 2.49902s57.334 5.83301 86.001 4.5l101 -5l2 -12l-156 -33l-4 -12c-36.667 -1.33301 -71.5 -8.5 -104.5 -21.5s-65.833 -26.833 -98.5 -41.5c34 -10.667 68.5 -19.167 103.5 -25.5s70.167 -12.166 105.5 -17.499v-13
c-16.667 -2.66699 -42 -4 -76 -4c-32.667 0 -66.667 -0.666992 -102 -2s-68.5 -3.33301 -99.5 -6s-51.167 -8 -60.5 -16c27.333 1.33301 54 2.33301 80 3s52 3.66699 78 9l4 -12l-94 -39c69.333 -22 140.5 -32 213.5 -30s145.833 3 218.5 3l4 -10
c-24.667 -23.333 -52.334 -40.5 -83.001 -51.5s-62.334 -18.5 -95.001 -22.5s-66.334 -6 -101.001 -6h-96l148 -45v-12c-18 -5.33301 -35.833 -9.16602 -53.5 -11.499s-35.5 -2.16602 -53.5 0.500977l82 -16v-12l-94 -15l39 -16l24 14l37 -30l14 -2v-4l60 -21
c19.333 8 36.5 16.5 51.5 25.5s30.333 17.167 46 24.5s31.667 13.5 48 18.5s36.166 7.5 59.499 7.5c35.333 0 70.333 -5.16699 105 -15.5s65.667 -27.166 93 -50.499v383h84v-649l654 649h118l-700 -698l2 -2l47 8l2 29c2.66699 -6.66699 5.33398 -15.834 8.00098 -27.501
s2 -21.167 -2 -28.5l43 52l11 -7l-19 -45l23 23l10 -4l-2 -35l22 33l2 41l13 2l16 -51l20.5 25.5c7 9 13.167 18.833 18.5 29.5l6 -35l14 70l17 -2l65 131l15 -17l35 50l10 -7l-28.5 -82c-9.66699 -27.333 -13.834 -55.333 -12.501 -84v-14h2l12 45l12 -2l-4 -43h66
c8 36.667 15.167 73.834 21.5 111.501s14.166 75.5 23.499 113.5l12 -2c0 -36.667 -2 -73.834 -6 -111.501s-6.66699 -74.834 -8 -111.501h2l31 49l10 -6l-21 -43c38 0 76.167 -2 114.5 -6s75.5 -15 111.5 -33l2 -10c-12 -8 -25 -17.5 -39 -28.5s-24.333 -23.5 -31 -37.5
c16.667 -15.333 35.834 -24.833 57.501 -28.5s42.834 -6.16699 63.501 -7.5v-13l-59 6l-35 -22l57 -19v-12l-90 -22l37 -15l-4 -12l-56 25l3 12l88 18l-52 19l35 31c-48 6.66699 -95.5 14.667 -142.5 24s-93.5 20.333 -139.5 33l-37 -74l-6 17l-29 -52l-12 4l12 123l-43 15
l27 12l2 94c-4 -10.667 -11.5 -25.334 -22.5 -44.001s-21.667 -38.167 -32 -58.5l-28 -56c-8.33301 -17 -12.5 -29.5 -12.5 -37.5h-12v34l-12 -39h-13l-10 37l-28 -43l-11 4l2 82l-24 -37l-12 5l4 40l-27 -24l-10 6l6 27l-29 -31l-6 35l-35 -6l750 -752h-117l-704 707
l-13 -13v-694h-84v870c0 57.333 -19 103.833 -57 139.5s-85 53.5 -141 53.5c-27.333 0 -54.666 -3.5 -81.999 -10.5s-50.666 -20.5 -69.999 -40.5l23 -25l82 -14l-123 4l-13 -10l-14 -60c27.333 -10.667 54.666 -17 81.999 -19s55.333 -7.33301 84 -16l-2 -12l-31 -2l88 -10
v-12l-43 -5l15 -4l-5 -12l-30 6l-6 -4l-140 17l-14 -11v-53l76 -19.5c24.667 -6.33301 50.667 -11.5 78 -15.5l2 -10c-15.333 -9.33301 -31.166 -17.5 -47.499 -24.5s-34.166 -11.833 -53.499 -14.5l21 -72l209 15l2 -13l-143.5 -78.5l-143.5 -74.5v-78l82 -47v-8
c-22 -26 -49 -43.167 -81 -51.5s-63.667 -13.833 -95 -16.5l59 -18l-2 -13l-43 -6c49.333 -20.667 100.666 -37 153.999 -49v-12c-20.667 -6.66699 -41.5 -12.167 -62.5 -16.5s-41.167 -11.833 -60.5 -22.5l67 -16l-2 -13l-43 -4l222 10v-12
c-30 0 -60.167 -1.33301 -90.5 -4s-60.5 -6 -90.5 -10l17 -13l106 5c5.33301 0 11.5 -1.16699 18.5 -3.5s13.167 -4.16602 18.5 -5.49902c-30 -18 -63.5 -26.5 -100.5 -25.5s-71.833 -0.5 -104.5 -4.5l31 -6l-4 -13c-53.333 16.667 -107.333 26.334 -162 29.001l14 16
l-67 11l2 12c27.333 0 55 0.666992 83 2s55.667 3.33301 83 6l-8 2l2 12l26 4l-35 27c18 9.33301 36.833 16.5 56.5 21.5s39.167 10.833 58.5 17.5c-27.333 6.66699 -53.333 14.167 -78 22.5s-49 17.833 -73 28.5v12l36 7l-63 20l2 12
c19.333 1.33301 38.166 2.83301 56.499 4.5s37.166 5.16699 56.499 10.5h-70c0 9.33301 -0.666992 21.833 -2 37.5s-2.33301 31.667 -3 48s-0.666992 31.666 0 45.999s2.33398 26.5 5.00098 36.5c-65.333 -15.333 -131.5 -22.333 -198.5 -21s-133.167 7.66602 -198.5 18.999
v-166h-84v176zM117.01 465.002c23.333 -4 47.166 -7.66602 71.499 -10.999s48.833 -5 73.5 -5h53c34 0 67.5 1.33301 100.5 4s65.833 7.33398 98.5 14.001v90c-66.667 -6.66699 -133.167 -15.834 -199.5 -27.501s-132.166 -25.834 -197.499 -42.501v-22zM117.01 502.003
c131.333 30 263.669 52.333 397.002 67v23c-66.667 9.33301 -132.834 19.5 -198.501 30.5s-131.834 17.833 -198.501 20.5v-141zM117.013 655.003c66.667 -2.66699 132.832 -8.67383 198.499 -18.0068s131.834 -16.333 198.501 -21v29
c-6.66699 1.33301 -15.834 3.33301 -27.501 6s-23.667 5.83398 -36 9.50098l-35 10.5c-11 3.33301 -17.833 6.33301 -20.5 9c0 4 5.5 6.66699 16.5 8s23.5 2 37.5 2c13.333 0 26.5 -0.333008 39.5 -1s21.5 -1 25.5 -1v39c-13.333 1.33301 -36.5 3.33301 -69.5 6
s-66.167 7.16699 -99.5 13.5s-62.666 15.333 -87.999 27s-38 26.834 -38 45.501c0 6.66699 4.16699 10.834 12.5 12.501s15.166 2.5 20.499 2.5c44 0 87.833 -4.16699 131.5 -12.5s87.167 -17.833 130.5 -28.5v75c-13.333 4 -26.5 7.5 -39.5 10.5s-27.167 4.5 -42.5 4.5v12
l-16 4c0 4 3 6.66699 9 8s13 2 21 2s15.5 -0.333008 22.5 -1s11.833 -1 14.5 -1l23 21c-2.66699 10.667 -6.5 20.834 -11.5 30.501s-10.833 18.5 -17.5 26.5c-18 -2.66699 -35.667 -4 -53 -4h-53l-6 8c0 2.66699 4.33301 5 13 7s18.5 3.83301 29.5 5.5
s21.667 2.83398 32 3.50098s17.5 1 21.5 1c-2.66699 1.33301 -6.5 3 -11.5 5s-9.83301 4.33301 -14.5 7s-8.33398 5.33398 -11.001 8.00098s-2.66699 5.33398 0 8.00098c-16.667 10.667 -34.167 18.167 -52.5 22.5s-37.166 6.5 -56.499 6.5
c-57.333 0 -104.666 -17.833 -141.999 -53.5s-56 -82.167 -56 -139.5v-215zM231.011 816.996c12 -19.333 30.1689 -33.668 54.502 -43.001s49.666 -16.5 75.999 -21.5s53.166 -8.16699 80.499 -9.5s51.333 -2.66602 72 -3.99902v41c-44 10.667 -88.167 20.167 -132.5 28.5
s-89.5 12.5 -135.5 12.5c-6.66699 0 -11.667 -1.33301 -15 -4zM279.013 1545.99h18h8h10h-36zM440.013 892.994l27 -2zM446.013 67.9941c6.66699 -1.33301 13.832 -2.5 21.499 -3.5s15.834 -1.5 24.501 -1.5c4 0 10 1.5 18 4.5s14.667 5.16699 20 6.5
c-28.667 -4 -56.667 -6 -84 -6zM461.011 675.994c9.33301 -2.66699 18.168 -5.33301 26.501 -8s17.166 -5.66699 26.499 -9v17h-53zM469.013 46.9951c8 -1.33301 16.1689 -2.33301 24.502 -3s17.166 -1 26.499 -1h8c6.66699 0 12.5 0.333008 17.5 1s10.167 1.66699 15.5 3
h-16c-6.66699 0 -11 1.33301 -13 4h-40c-6.66699 0 -14.334 -1.33301 -23.001 -4zM469.015 1106c2.66699 -2.66699 7.16699 -4.33301 13.5 -5s10.833 -1 13.5 -1l-19 14zM500.015 1083l11.999 -12c6.66699 0 11.334 -0.666992 14.001 -2h4
c-2.66699 4 -6.66699 7.33301 -12 10s-10 4.66699 -14 6zM502.014 904.996h10l-2 8zM524.014 884.996l2 -2zM524.014 1059c1.33301 -2.66699 2.66797 -4.33203 4.00098 -4.99902s2.66602 -2.33398 3.99902 -5.00098c2.66699 1.33301 5.5 2.33301 8.5 3
s5.83301 2.33398 8.5 5.00098l-4 2c-2.66699 0 -6.16699 -0.333008 -10.5 -1s-7.83301 -0.333984 -10.5 0.999023zM543.016 1036l2.00098 -6h12h8v4c0 2.66699 0.666992 5 2 7s2.66602 4.66699 3.99902 8c-4 0 -9 -1.5 -15 -4.5s-10.333 -5.83301 -13 -8.5zM545.017 62.998
h20h43c-2.66699 2.66699 -5 4.5 -7 5.5l-7 3.5l-24.5 -4c-8.33301 -1.33301 -16.5 -3 -24.5 -5zM555.017 587.998h2h-2zM561.017 1018h2h-2zM571.017 1061h2h-2zM598.017 290.998c28.667 8 51.999 22.333 69.999 43c-10.667 8 -21.667 15.5 -33 22.5
s-23.666 12.5 -36.999 16.5v-82zM598.016 476.998l129.499 68l126.5 69c-58.667 -5.33301 -118.667 -9.33301 -180 -12v-12h10h18c6.66699 0 12.834 -0.666992 18.501 -2s8.5 -3.33301 8.5 -6s-2.66699 -4.5 -8 -5.5s-11.5 -1.83301 -18.5 -2.5l-20.5 -2
c-6.66699 -0.666992 -10.667 -1 -12 -1c-4 -19.333 -12.5 -36 -25.5 -50s-28.5 -26 -46.5 -36v-8zM598.015 499.998c13.333 8 25.499 18 36.499 30s18.5 25.667 22.5 41c-10.667 -1.33301 -20.5 -2.33301 -29.5 -3s-18.833 -1 -29.5 -1v-22l6 -2
c-1.33301 -2.66699 -2.66602 -6.5 -3.99902 -11.5s-2 -8.83301 -2 -11.5v-20zM598.014 595.998c1.33301 0 4.66699 -0.331055 10 -0.998047s11.833 -1.33398 19.5 -2.00098s14.5 -1.33398 20.5 -2.00098s10.667 -1 14 -1v10h-64v-4zM598.015 629
c2.66699 -1.33301 6.66797 -2.66797 12.001 -4.00098s8 -3.66602 8 -6.99902c0 -4 -2.66699 -6 -8 -6h52c-1.33301 13.333 -3.5 26 -6.5 38s-8.5 23.333 -16.5 34c-6.66699 -1.33301 -13.667 -2 -21 -2c-6.66699 0 -13.334 -0.666992 -20.001 -2v-51zM598.016 691.998
c5.33301 0 10.5 0.333008 15.5 1s10.167 1 15.5 1c-10.667 8 -21 14.333 -31 19v-21zM598.016 724.998c8 -2.66699 16.166 -6.50098 24.499 -11.501s15.833 -10.833 22.5 -17.5l48 9.5c18.667 3.66699 33.334 10.167 44.001 19.5c-23.333 4 -46.5 8.83301 -69.5 14.5
s-46.167 11.834 -69.5 18.501v-33zM598.015 892.997h14.001c-6.66699 0 -11.334 0.666992 -14.001 2v-2zM631.016 994.997c2.66699 0 5.33203 -0.333008 7.99902 -1s5.33398 -1 8.00098 -1l-10 11c-2.66699 -3.33301 -4.66699 -6.33301 -6 -9zM637.014 48.9971
c19.333 1.33301 38.334 2.00098 57.001 2.00098c19.333 0 38.666 2 57.999 6c-19.333 -2.66699 -38.5 -4.33398 -57.5 -5.00098s-38.167 -1 -57.5 -1v-2zM666.015 851.998h2h4h-6zM700.015 863.998l16.999 -4.00098c0 2.66699 1.33301 5.33398 4 8.00098h-8
c-5.33301 -2.66699 -9.66602 -4 -12.999 -4zM737.014 843.997l6 -2h-4zM737.014 845.997l2 -4h4h15zM1307.01 675.997c4 5.33301 7.66895 10.668 11.002 16.001s7 11.666 11 18.999l-6 16c-2.66699 -2.66699 -5.33398 -6 -8.00098 -10s-5.33398 -6 -8.00098 -6v-35z
M1313.02 734.999l4 6l-2 9zM1331.02 736.999l4 -12l11.5 17.5c2.33301 3.66699 3.5 9.5 3.5 17.5c-4 -4 -10.333 -11.667 -19 -23zM1341.02 708.999l7 -17v29zM1389.02 718.999c2.66699 5.33301 8.66699 16.502 18 33.502l29.5 54.5c10.333 19.333 19.333 36.833 27 52.5
s11.5 25.5 11.5 29.5c0 13.333 -0.666992 23.666 -2 30.999c-1.33301 -2.66699 -5.5 -8.83398 -12.5 -18.501l-22 -31l-20.5 -29c-6 -8.33301 -9.66699 -12.5 -11 -12.5s-2.33301 0.333008 -3 1s-1.66699 1 -3 1c-2.66699 -19.333 -4.66699 -38 -6 -56
s-3.33301 -36.667 -6 -56zM1450.02 909.001l23 29l-3 10zM1485.02 915.001l9 22.5c3.33301 8.33301 6.33301 16.833 9 25.5l-18 -27v-21zM1487.02 752.001h4h-4zM1487.02 764.001h4.00098l4 31c-2.66699 -6.66699 -5.33398 -17 -8.00098 -31zM1493.02 643.001
c6.66699 10.667 15.834 24.3311 27.501 40.998s19.5 29.667 23.5 39l-43 12c-1.33301 -15.333 -2.33301 -30.666 -3 -45.999s-2.33398 -30.666 -5.00098 -45.999zM1503.02 747.998c6.66699 -2.66699 13.833 -5.16699 21.5 -7.5l23.5 -7.5l4 15
c-10.667 2.66699 -18.667 4 -24 4h-25v-4zM1503.02 763.998l27.001 0.00195312c9.33301 0 19 -1.33301 29 -4c5.33301 13.333 8.66602 23.666 9.99902 30.999l-6 4l-27.5 4c-9 1.33301 -18.5 2.66602 -28.5 3.99902zM1567.02 729
c28.667 -8 57.6699 -15.1699 87.0029 -21.5029s59.666 -12.166 90.999 -17.499c-4 1.33301 -11.833 3 -23.5 5s-23.334 4.83301 -35.001 8.5s-22.334 6.83398 -32.001 9.50098s-14.5 5.33398 -14.5 8.00098l2 4c-12 2.66699 -23.833 5.66699 -35.5 9s-23.5 6.33301 -35.5 9z
M1575.02 755.997c28.667 -6.66699 62.8301 -15.501 102.497 -26.501s73.834 -16.5 102.501 -16.5c10.667 0 17.667 0.666992 21 2s4.33301 7.33301 3 18l4 6c22 6.66699 37.667 17 47 31c-31.333 15.333 -63.666 25 -96.999 29s-67 6 -101 6h-31l-2 -8
c4 -1.33301 14.167 -2.66602 30.5 -3.99902s24.5 -5 24.5 -11l-6 -6c-20.667 0 -39.667 2 -57 6l-4 -2c-2.66699 2.66699 -7.66699 4 -15 4c-6.66699 0 -12 0.666992 -16 2c0 -5.33301 -0.666992 -10.333 -2 -15s-2.66602 -9.66699 -3.99902 -15zM1587.02 816.996h18.999
c1.33301 24.667 3 49.334 5 74.001s4.33301 50 7 76c-5.33301 -26 -10.166 -51.333 -14.499 -76s-9.83301 -49.334 -16.5 -74.001zM1737.01 704.996c9.33301 -2.66699 18.8311 -5.16797 28.498 -7.50098l30.5 -7.5c-15.333 6.66699 -25.666 10 -30.999 10
c-3.33301 0.666992 -12.666 2.33398 -27.999 5.00098z" />
    <glyph glyph-name="Oslash" unicode="&#xd8;" 
d="M102 731c0 221.333 69.667 401.665 209 540.998c140.667 140.667 321.667 211 543 211c151.333 0 287.333 -35.667 408 -107l84 119l75 -47l-86 -123c182 -143.333 273 -341.333 273 -594c0 -221.333 -70.333 -401.666 -211 -540.999
c-140.667 -140.667 -321.667 -210.667 -543 -210c-140.667 0 -271 32.667 -391 98l-82 -119l-74 49l82 119c-94 68 -165.667 156.667 -215 266c-48 106.667 -72 219.334 -72 338.001zM186 730.999c0 -114.667 22 -217.667 66 -309c42 -90 104 -165 186 -225l776 1110
c-112 62.667 -232 94 -360 94c-194 0 -353.833 -62.833 -479.5 -188.5s-188.5 -286.167 -188.5 -481.5zM512 146.999c105.333 -56 219.333 -84.001 342 -84.001c196.667 0 357.667 61.667 483 185c124.667 124 187 285 187 483c0 222.667 -79.333 397.334 -238 524.001z" />
    <glyph glyph-name="Ugrave" unicode="&#xd9;" horiz-adv-x="1136" 
d="M156 365v1097h82v-1097c0 -94 34 -168 102 -222c62.667 -49.333 142 -73.666 238 -72.999c94 0 173 25 237 75c69.333 54.667 104.333 128 105 220v1097h84v-1097c0 -118.667 -43.333 -213.667 -130 -285c-75.333 -62.667 -174 -94 -296 -94
c-118.667 0 -217.667 32 -297 96c-83.333 69.333 -125 163.666 -125 282.999zM354 1784l43 45l246 -248l-45 -41z" />
    <glyph glyph-name="Uacute" unicode="&#xda;" horiz-adv-x="1136" 
d="M156 365v1097h82v-1097c0 -94 34 -168 102 -222c62.667 -49.333 142 -73.666 238 -72.999c94 0 173 25 237 75c69.333 54.667 104.333 128 105 220v1097h84v-1097c0 -118.667 -43.333 -213.667 -130 -285c-75.333 -62.667 -174 -94 -296 -94
c-118.667 0 -217.667 32 -297 96c-83.333 69.333 -125 163.666 -125 282.999zM547 1583l229 229l39 -40l-227 -228z" />
    <glyph glyph-name="Ucircumflex" unicode="&#xdb;" horiz-adv-x="1136" 
d="M156 365v1097h82v-1097c0 -94 34 -168 102 -222c62.667 -49.333 142 -73.666 238 -72.999c94 0 173 25 237 75c69.333 54.667 104.333 128 105 220v1097h84v-1097c0 -118.667 -43.333 -213.667 -130 -285c-75.333 -62.667 -174 -94 -296 -94
c-118.667 0 -217.667 32 -297 96c-83.333 69.333 -125 163.666 -125 282.999zM332 1602l250 247l245 -247l-41 -43l-204 202l-205 -202z" />
    <glyph glyph-name="Udieresis" unicode="&#xdc;" horiz-adv-x="1136" 
d="M156 365v1097h82v-1097c0 -94 34 -168 102 -222c62.667 -49.333 142 -73.666 238 -72.999c94 0 173 25 237 75c69.333 54.667 104.333 128 105 220v1097h84v-1097c0 -118.667 -43.333 -213.667 -130 -285c-75.333 -62.667 -174 -94 -296 -94
c-118.667 0 -217.667 32 -297 96c-83.333 69.333 -125 163.666 -125 282.999zM367 1630c0 36.667 22.332 59.332 66.999 67.999c34.667 0 57.334 -22.667 68.001 -68c0 -45.333 -22.667 -67.666 -68 -66.999c-15.333 0 -31 6 -47 18c-12 12 -18.667 28.333 -20 49z
M646.999 1630c0 36.667 22.667 59.332 68 67.999c34 0 56.333 -22.667 67 -68c0 -45.333 -22.333 -67.666 -67 -66.999c-15.333 0 -31 6 -47 18c-12 12 -19 28.333 -21 49z" />
    <glyph glyph-name="Yacute" unicode="&#xdd;" horiz-adv-x="1046" 
d="M68 1462h96l360 -633l365 633h96l-418 -731v-731h-84v731zM504 1579l229 238l43 -45l-229 -228z" />
    <glyph glyph-name="Thorn" unicode="&#xde;" horiz-adv-x="1003" 
d="M156 0v1462h82v-356h274c112 0 206.167 -32.833 282.5 -98.5s114.5 -153.834 114.5 -264.501c0 -112 -38 -200.667 -114 -266c-76.667 -68 -171 -102 -283 -102h-274v-375h-82zM238 459.001l272 -0.000976562c90 0 165 24.333 225 73c60 52 90 122.333 90 211
s-31.333 158.334 -94 209.001c-56 46.667 -129.667 70 -221 70h-272v-563z" />
    <glyph glyph-name="germandbls" unicode="&#xdf;" horiz-adv-x="1103" 
d="M45 762v83.998h117v254c0 110.667 29.333 198 88 262c58.667 66.667 142.667 100 252 100c94 0 176 -31.333 246 -94c68 -64 102 -143.333 102 -238c0 -130 -54.667 -231 -164 -303c92.667 -12 170.667 -47.333 234 -106c76 -72.667 114 -169.667 114 -291
c0 -125.333 -34 -227.666 -102 -306.999c-72.667 -82 -171 -123 -295 -123h-231v84h233c91.333 0 167 34.667 227 104c56 66.667 84 147.334 84 242.001c0 222.667 -146 334 -438 334v82c74 0 134.667 28.667 182 86c48 58.667 72 124.667 72 198c0 69.333 -26 128 -78 176
s-114 72 -186 72c-172 0 -258 -93.333 -258 -280v-1098h-82v762h-117z" />
    <glyph glyph-name="agrave" unicode="&#xe0;" horiz-adv-x="1044" 
d="M72 422c0 122.667 41.667 225.666 125 308.999c84.667 84.667 188.334 127 311.001 127c135.333 0 248 -53.333 338 -160v148h84v-846h-84v145c-88.667 -106.667 -201.334 -159.667 -338.001 -159c-122.667 0 -225.667 41.667 -309 125
c-84.667 84.667 -127 188.334 -127 311.001zM154 421.999c0 -96.667 34.6689 -179.834 104.002 -249.501s152.666 -104.5 249.999 -104.5c98 0 181.333 34 250 102c69.333 70 104 154 104 252c0 96.667 -34.833 179.834 -104.5 249.501s-152.834 104.5 -249.501 104.5
c-98 0 -181.333 -34 -250 -102c-69.333 -69.333 -104 -153.333 -104 -252zM262.002 1233l45 49l275 -274l-52 -47z" />
    <glyph glyph-name="aacute" unicode="&#xe1;" horiz-adv-x="1044" 
d="M72 422c0 122.667 41.667 225.666 125 308.999c84.667 84.667 188.334 127 311.001 127c135.333 0 248 -53.333 338 -160v148h84v-846h-84v145c-88.667 -106.667 -201.334 -159.667 -338.001 -159c-122.667 0 -225.667 41.667 -309 125
c-84.667 84.667 -127 188.334 -127 311.001zM154 421.999c0 -96.667 34.6689 -179.834 104.002 -249.501s152.666 -104.5 249.999 -104.5c98 0 181.333 34 250 102c69.333 70 104 154 104 252c0 96.667 -34.833 179.834 -104.5 249.501s-152.834 104.5 -249.501 104.5
c-98 0 -181.333 -34 -250 -102c-69.333 -69.333 -104 -153.333 -104 -252zM442.002 1008l275 274l45 -49l-268 -272z" />
    <glyph glyph-name="acircumflex" unicode="&#xe2;" horiz-adv-x="1044" 
d="M72 422c0 122.667 41.667 225.666 125 308.999c84.667 84.667 188.334 127 311.001 127c135.333 0 248 -53.333 338 -160v148h84v-846h-84v145c-88.667 -106.667 -201.334 -159.667 -338.001 -159c-122.667 0 -225.667 41.667 -309 125
c-84.667 84.667 -127 188.334 -127 311.001zM154 421.999c0 -96.667 34.6689 -179.834 104.002 -249.501s152.666 -104.5 249.999 -104.5c98 0 181.333 34 250 102c69.333 70 104 154 104 252c0 96.667 -34.833 179.834 -104.5 249.501s-152.834 104.5 -249.501 104.5
c-98 0 -181.333 -34 -250 -102c-69.333 -69.333 -104 -153.333 -104 -252zM252.002 1016l250 246l246 -246l-41 -45l-205 203l-205 -203z" />
    <glyph glyph-name="atilde" unicode="&#xe3;" horiz-adv-x="1044" 
d="M72 422c0 122.667 41.667 225.666 125 308.999c84.667 84.667 188.334 127 311.001 127c135.333 0 248 -53.333 338 -160v148h84v-846h-84v145c-88.667 -106.667 -201.334 -159.667 -338.001 -159c-122.667 0 -225.667 41.667 -309 125
c-84.667 84.667 -127 188.334 -127 311.001zM154 421.999c0 -96.667 34.6689 -179.834 104.002 -249.501s152.666 -104.5 249.999 -104.5c98 0 181.333 34 250 102c69.333 70 104 154 104 252c0 96.667 -34.833 179.834 -104.5 249.501s-152.834 104.5 -249.501 104.5
c-98 0 -181.333 -34 -250 -102c-69.333 -69.333 -104 -153.333 -104 -252zM186.002 1051c38 69.333 103.001 104 195.001 104c18 0 33.333 -0.666992 46 -2s24.667 -3.33301 36 -6c18 -5.33301 37 -15 57 -29l60 -26l63 -9c60 0 107 19.333 141 58l58 -45l-39 -41l-33 -27
c-35.333 -19.333 -76.333 -29 -123 -29c-60 0 -108.333 12.333 -145 37c-10.667 6.66699 -20.834 12.5 -30.501 17.5s-19.5 8.83301 -29.5 11.5l-61 8c-50.667 0 -97 -22.333 -139 -67z" />
    <glyph glyph-name="adieresis" unicode="&#xe4;" horiz-adv-x="1044" 
d="M72 422c0 122.667 41.667 225.666 125 308.999c84.667 84.667 188.334 127 311.001 127c135.333 0 248 -53.333 338 -160v148h84v-846h-84v145c-88.667 -106.667 -201.334 -159.667 -338.001 -159c-122.667 0 -225.667 41.667 -309 125
c-84.667 84.667 -127 188.334 -127 311.001zM154 421.999c0 -96.667 34.6689 -179.834 104.002 -249.501s152.666 -104.5 249.999 -104.5c98 0 181.333 34 250 102c69.333 70 104 154 104 252c0 96.667 -34.833 179.834 -104.5 249.501s-152.834 104.5 -249.501 104.5
c-98 0 -181.333 -34 -250 -102c-69.333 -69.333 -104 -153.333 -104 -252zM283.002 1065c0 36.667 22.332 59.333 66.999 68c34.667 0 57.334 -22.667 68.001 -68c0 -45.333 -22.667 -68 -68 -68c-15.333 0 -31 6.33301 -47 19c-12 12 -18.667 28.333 -20 49zM563.001 1065
c0 36.667 22.667 59.333 68 68c34 0 56.333 -22.667 67 -68c0 -45.333 -22.333 -68 -67 -68c-15.333 0 -31 6.33301 -47 19c-12 12 -19 28.333 -21 49z" />
    <glyph glyph-name="aring" unicode="&#xe5;" horiz-adv-x="1044" 
d="M72 422c0 122.667 41.667 225.666 125 308.999c84.667 84.667 188.334 127 311.001 127c135.333 0 248 -53.333 338 -160v148h84v-846h-84v145c-88.667 -106.667 -201.334 -159.667 -338.001 -159c-122.667 0 -225.667 41.667 -309 125
c-84.667 84.667 -127 188.334 -127 311.001zM154 421.999c0 -96.667 34.6689 -179.834 104.002 -249.501s152.666 -104.5 249.999 -104.5c98 0 181.333 34 250 102c69.333 70 104 154 104 252c0 96.667 -34.833 179.834 -104.5 249.501s-152.834 104.5 -249.501 104.5
c-98 0 -181.333 -34 -250 -102c-69.333 -69.333 -104 -153.333 -104 -252zM330.002 1102c0 45.333 17 85 51 119s73.667 51 119 51s85 -17 119 -51s51 -73.667 51 -119s-17.167 -85 -51.5 -119s-73.833 -51 -118.5 -51c-45.333 0 -85 17 -119 51s-51 73.667 -51 119z
M373.002 1104c0 -32.667 13 -62 39 -88s55.333 -39 88 -39s62 13 88 39s39 55.333 39 88s-13 62 -39 88s-55.333 39 -88 39s-62 -13 -88 -39s-39 -55.333 -39 -88z" />
    <glyph glyph-name="ae" unicode="&#xe6;" horiz-adv-x="1798" 
d="M72 422c0 122.667 41.667 225.665 125 308.998c84.667 84.667 188.334 127 311.001 127c135.333 0 248 -53.333 338 -160v148h84v-166c82 117.333 202 176 360 176c124 0 228 -38.333 312 -115c83.333 -75.333 124.666 -175.666 123.999 -300.999h-792
c0 -114.667 30.667 -205.334 92 -272.001c64 -68 152 -102 264 -102c57.333 0 109.333 9.33301 156 28c58.667 24.667 111.334 74.667 158.001 150l75 -35c-53.333 -101.333 -135 -169.666 -245 -204.999c-42 -13.333 -90 -20 -144 -20c-155.333 0 -275.333 58.667 -360 176
v-160h-84v145c-88.667 -106.667 -201.334 -159.667 -338.001 -159c-122.667 0 -225.667 41.667 -309 125c-84.667 84.667 -127 188.334 -127 311.001zM154 421.998c0 -96.667 34.6689 -179.834 104.002 -249.501s152.666 -104.5 249.999 -104.5c98 0 181.333 34 250 102
c69.333 70 104 154 104 252c0 96.667 -34.833 179.834 -104.5 249.501s-152.834 104.5 -249.501 104.5c-98 0 -181.333 -34 -250 -102c-69.333 -69.333 -104 -153.333 -104 -252zM946.002 519.998l686 -0.000976562c-13.333 62.667 -44.666 117.334 -93.999 164.001
c-64 60 -146.667 90 -248 90c-174.667 0 -289.334 -84.667 -344.001 -254z" />
    <glyph glyph-name="ccedilla" unicode="&#xe7;" horiz-adv-x="897" 
d="M96 422c0 126.667 41.667 231 125 313c83.333 83.333 188 125 314 125c66.667 0 130.667 -12.333 192 -37l66 -37v-110l-31 26l-31 25c-58.667 34 -124 51 -196 51c-104 0 -188.667 -33.333 -254 -100c-66.667 -66.667 -100.334 -152 -101.001 -256
c0 -102.667 33.5 -187.334 100.5 -254.001s151.833 -100 254.5 -100c70.667 0 135.334 17 194.001 51l64 51v-111l-60 -36c-49.333 -24.667 -101 -37 -155 -37l-27 -70c28.667 -13.333 47 -46.666 55 -99.999c0 -31.333 -12.333 -58 -37 -80c-26 -22 -54.667 -33 -86 -33
c-40.667 0 -75.334 17 -104.001 51l27 72l32 -29c12 -8 25.667 -12 41 -12c10.667 0 21.667 5.33301 33 16l6 13l4 16c0 15.333 -6.66699 29.666 -20 42.999l-39 31l26 80c-117.333 12 -212.166 58.333 -284.499 139s-108.5 180.334 -108.5 299.001z" />
    <glyph glyph-name="egrave" unicode="&#xe8;" horiz-adv-x="1003" 
d="M70 422c0 126.667 41 231.001 123 313.001c83.333 83.333 188.333 125 315 125c125.333 0 229 -39 311 -117c83.333 -78 125 -179 125 -303h-792c0 -114.667 30.667 -205.334 92 -272.001c64 -68 152 -102 264 -102c57.333 0 109.333 9.33301 156 28
c58.667 24.667 111 74.667 157 150l76 -35c-53.333 -101.333 -135.333 -169.666 -246 -204.999c-42 -13.333 -89.667 -20 -143 -20c-126.667 0 -231 41.667 -313 125c-83.333 83.333 -125 187.666 -125 312.999zM164 520.001h686c-13.333 78 -53.666 141 -120.999 189
c-64 46.667 -137.667 69.667 -221 69c-174.667 0 -289.334 -86 -344.001 -258zM279 1233l45 49l274 -274l-51 -47z" />
    <glyph glyph-name="eacute" unicode="&#xe9;" horiz-adv-x="1003" 
d="M70 422c0 126.667 41 231.001 123 313.001c83.333 83.333 188.333 125 315 125c125.333 0 229 -39 311 -117c83.333 -78 125 -179 125 -303h-792c0 -114.667 30.667 -205.334 92 -272.001c64 -68 152 -102 264 -102c57.333 0 109.333 9.33301 156 28
c58.667 24.667 111 74.667 157 150l76 -35c-53.333 -101.333 -135.333 -169.666 -246 -204.999c-42 -13.333 -89.667 -20 -143 -20c-126.667 0 -231 41.667 -313 125c-83.333 83.333 -125 187.666 -125 312.999zM164 520.001h686c-13.333 78 -53.666 141 -120.999 189
c-64 46.667 -137.667 69.667 -221 69c-174.667 0 -289.334 -86 -344.001 -258zM410 1008l274 274l45 -49l-270 -272z" />
    <glyph glyph-name="ecircumflex" unicode="&#xea;" horiz-adv-x="1003" 
d="M70 422c0 126.667 41 231.001 123 313.001c83.333 83.333 188.333 125 315 125c125.333 0 229 -39 311 -117c83.333 -78 125 -179 125 -303h-792c0 -114.667 30.667 -205.334 92 -272.001c64 -68 152 -102 264 -102c57.333 0 109.333 9.33301 156 28
c58.667 24.667 111 74.667 157 150l76 -35c-53.333 -101.333 -135.333 -169.666 -246 -204.999c-42 -13.333 -89.667 -20 -143 -20c-126.667 0 -231 41.667 -313 125c-83.333 83.333 -125 187.666 -125 312.999zM164 520.001h686c-13.333 78 -53.666 141 -120.999 189
c-64 46.667 -137.667 69.667 -221 69c-174.667 0 -289.334 -86 -344.001 -258zM268 1016l248 246l246 -246l-41 -45l-205 203l-205 -203z" />
    <glyph glyph-name="edieresis" unicode="&#xeb;" horiz-adv-x="1003" 
d="M70 422c0 126.667 41 231.001 123 313.001c83.333 83.333 188.333 125 315 125c125.333 0 229 -39 311 -117c83.333 -78 125 -179 125 -303h-792c0 -114.667 30.667 -205.334 92 -272.001c64 -68 152 -102 264 -102c57.333 0 109.333 9.33301 156 28
c58.667 24.667 111 74.667 157 150l76 -35c-53.333 -101.333 -135.333 -169.666 -246 -204.999c-42 -13.333 -89.667 -20 -143 -20c-126.667 0 -231 41.667 -313 125c-83.333 83.333 -125 187.666 -125 312.999zM164 520.001h686c-13.333 78 -53.666 141 -120.999 189
c-64 46.667 -137.667 69.667 -221 69c-174.667 0 -289.334 -86 -344.001 -258zM297 1065c0 36.667 22.667 59.333 68 68c34 0 56.333 -22.667 67 -68c0 -45.333 -22.333 -68 -67 -68c-15.333 0 -31.333 6.33301 -48 19c-12 12 -18.667 28.333 -20 49zM578 1065
c0 36.667 22.332 59.333 66.999 68c34.667 0 57.334 -22.667 68.001 -68c0 -45.333 -22.667 -68 -68 -68c-15.333 0 -31 6.33301 -47 19c-12 12 -18.667 28.333 -20 49z" />
    <glyph glyph-name="igrave" unicode="&#xec;" horiz-adv-x="376" 
d="M-78 1233l47 49l273 -274l-49 -47zM150 0v846h83v-846h-83z" />
    <glyph glyph-name="iacute" unicode="&#xed;" horiz-adv-x="376" 
d="M150 0v846h83v-846h-83zM150 1008l274 274l47 -49l-270 -272z" />
    <glyph glyph-name="icircumflex" unicode="&#xee;" horiz-adv-x="522" 
d="M16 1016l250 246l246 -246l-41 -45l-205 203l-205 -203zM219 0v846h84v-846h-84z" />
    <glyph glyph-name="idieresis" unicode="&#xef;" horiz-adv-x="376" 
d="M-20 1065c0 34 22.332 56.667 66.999 68c34.667 0 57.334 -22.667 68.001 -68c0 -45.333 -22.667 -68 -68 -68c-36.667 0 -59 22.667 -67 68zM149.999 0v846h83v-846h-83zM259.999 1065c0 36.667 22.667 59.333 68 68c34 0 56.333 -22.667 67 -68
c0 -45.333 -22.333 -68 -67 -68c-15.333 0 -31 6.33301 -47 19c-12 12 -19 28.333 -21 49z" />
    <glyph glyph-name="eth" unicode="&#xf0;" horiz-adv-x="1019" 
d="M72 422c0 122.667 41.667 225.667 125 309c84.667 84.667 188.334 127 311.001 127c124 0 229.667 -45.667 317 -137c-34 169.333 -120.667 304.333 -260 405l-176 -110l-82 53l178 113l-92 47l-104 43l73 71c74 -20.667 146 -55.334 216 -104.001l180 113l82 -54
l-187 -116c100 -88.667 171.667 -183 215 -283c50.667 -118.667 76 -277.667 76 -477c0 -122.667 -41.667 -225.667 -125 -309c-84.667 -84.667 -188.334 -127 -311.001 -127s-225.667 41.667 -309 125c-84.667 84.667 -127 188.334 -127 311.001zM154 422
c0 -96.667 34.6689 -179.834 104.002 -249.501s152.666 -104.5 249.999 -104.5c98 0 181.333 34 250 102c69.333 70 104 154 104 252c0 96.667 -34.833 179.834 -104.5 249.501s-152.834 104.5 -249.501 104.5c-98 0 -181.333 -34 -250 -102
c-69.333 -69.333 -104 -153.333 -104 -252z" />
    <glyph glyph-name="ntilde" unicode="&#xf1;" horiz-adv-x="923" 
d="M131 1051c38 69.333 102.998 104 194.998 104c34 0 69.333 -6.66699 106 -20l16.5 -8.5c5.66699 -3 11.834 -6.5 18.501 -10.5l59 -24l72 -9h47l25 9c10.667 4 30.334 20.333 59.001 49l59 -45l-38 -41l-33 -27c-31.333 -19.333 -68.333 -29 -111 -29
c-64 0 -116.333 12.333 -157 37l-60 25c-19.333 8 -44 12 -74 12c-50.667 0 -93 -22.333 -127 -67zM134.998 0v846.001h84v-103c38 75.333 119.333 113 244 113c105.333 0 185.833 -30 241.5 -90s83.5 -144 83.5 -252v-514h-83v506c0 178.667 -80.667 268 -242 268
c-79.333 0 -139.333 -23 -180 -69c-42 -46.667 -63.333 -110.334 -64 -191.001v-514h-84z" />
    <glyph glyph-name="ograve" unicode="&#xf2;" horiz-adv-x="1019" 
d="M72 422c0 121.333 42.334 224.333 127.001 309c83.333 86 186.333 129 309 129c121.333 0 224.333 -42.333 309 -127s127 -188.334 127 -311.001s-41.667 -225.667 -125 -309c-84.667 -84.667 -188.334 -127 -311.001 -127s-225.667 41.667 -309 125
c-84.667 84.667 -127 188.334 -127 311.001zM154.001 422c0 -96.667 34.668 -179.833 104.001 -249.5s152.666 -104.5 249.999 -104.5c98 0 181.333 34 250 102c69.333 70 104 154 104 252c0 100 -34 184 -102 252c-68 69.333 -152 104 -252 104
c-95.333 0 -178 -35.333 -248 -106c-70.667 -70.667 -106 -154 -106 -250zM276.002 1233l46 49l274 -274l-51 -47z" />
    <glyph glyph-name="oacute" unicode="&#xf3;" horiz-adv-x="1019" 
d="M72 422c0 121.333 42.334 224.333 127.001 309c83.333 86 186.333 129 309 129c121.333 0 224.333 -42.333 309 -127s127 -188.334 127 -311.001s-41.667 -225.667 -125 -309c-84.667 -84.667 -188.334 -127 -311.001 -127s-225.667 41.667 -309 125
c-84.667 84.667 -127 188.334 -127 311.001zM154.001 422c0 -96.667 34.668 -179.833 104.001 -249.5s152.666 -104.5 249.999 -104.5c98 0 181.333 34 250 102c69.333 70 104 154 104 252c0 100 -34 184 -102 252c-68 69.333 -152 104 -252 104
c-95.333 0 -178 -35.333 -248 -106c-70.667 -70.667 -106 -154 -106 -250zM418.002 1008l274 274l45 -49l-268 -272z" />
    <glyph glyph-name="ocircumflex" unicode="&#xf4;" horiz-adv-x="1019" 
d="M72 422c0 121.333 42.334 224.333 127.001 309c83.333 86 186.333 129 309 129c121.333 0 224.333 -42.333 309 -127s127 -188.334 127 -311.001s-41.667 -225.667 -125 -309c-84.667 -84.667 -188.334 -127 -311.001 -127s-225.667 41.667 -309 125
c-84.667 84.667 -127 188.334 -127 311.001zM154.001 422c0 -96.667 34.668 -179.833 104.001 -249.5s152.666 -104.5 249.999 -104.5c98 0 181.333 34 250 102c69.333 70 104 154 104 252c0 100 -34 184 -102 252c-68 69.333 -152 104 -252 104
c-95.333 0 -178 -35.333 -248 -106c-70.667 -70.667 -106 -154 -106 -250zM252.002 1016l250 246l246 -246l-41 -45l-205 203l-205 -203z" />
    <glyph glyph-name="otilde" unicode="&#xf5;" horiz-adv-x="1019" 
d="M72 422c0 121.333 42.334 224.333 127.001 309c83.333 86 186.333 129 309 129c121.333 0 224.333 -42.333 309 -127s127 -188.334 127 -311.001s-41.667 -225.667 -125 -309c-84.667 -84.667 -188.334 -127 -311.001 -127s-225.667 41.667 -309 125
c-84.667 84.667 -127 188.334 -127 311.001zM154.001 422c0 -96.667 34.668 -179.833 104.001 -249.5s152.666 -104.5 249.999 -104.5c98 0 181.333 34 250 102c69.333 70 104 154 104 252c0 100 -34 184 -102 252c-68 69.333 -152 104 -252 104
c-95.333 0 -178 -35.333 -248 -106c-70.667 -70.667 -106 -154 -106 -250zM168.002 1051c38 69.333 102.665 104 193.998 104c34 0 69.667 -6.66699 107 -20l16.5 -8.5c5.66699 -3 11.834 -6.5 18.501 -10.5l59 -24l72 -9h47l25 9c10.667 4 30.334 20.333 59.001 49l59 -45
l-39 -41l-32 -27c-31.333 -19.333 -68.333 -29 -111 -29c-64 0 -116.667 12.333 -158 37l-59 25c-19.333 8 -44 12 -74 12c-50.667 0 -93 -22.333 -127 -67z" />
    <glyph glyph-name="odieresis" unicode="&#xf6;" horiz-adv-x="1019" 
d="M72 422c0 121.333 42.334 224.333 127.001 309c83.333 86 186.333 129 309 129c121.333 0 224.333 -42.333 309 -127s127 -188.334 127 -311.001s-41.667 -225.667 -125 -309c-84.667 -84.667 -188.334 -127 -311.001 -127s-225.667 41.667 -309 125
c-84.667 84.667 -127 188.334 -127 311.001zM154.001 422c0 -96.667 34.668 -179.833 104.001 -249.5s152.666 -104.5 249.999 -104.5c98 0 181.333 34 250 102c69.333 70 104 154 104 252c0 100 -34 184 -102 252c-68 69.333 -152 104 -252 104
c-95.333 0 -178 -35.333 -248 -106c-70.667 -70.667 -106 -154 -106 -250zM291.002 1065c0 36.667 22.332 59.333 66.999 68c34.667 0 57.334 -22.667 68.001 -68c0 -45.333 -22.667 -68 -68 -68c-15.333 0 -31 6.33301 -47 19c-12 12 -18.667 28.333 -20 49zM571.001 1065
c0 36.667 22.666 59.333 67.999 68c34.667 0 57.334 -22.667 68.001 -68c0 -45.333 -22.667 -68 -68 -68c-15.333 0 -31 6.33301 -47 19c-12 12 -19 28.333 -21 49z" />
    <glyph glyph-name="divide" unicode="&#xf7;" horiz-adv-x="741" 
d="M117 489v105h526v-105h-526zM311 299c0 36.667 22.667 59.333 68 68c34 0 56.333 -22.667 67 -68c0 -45.333 -22.333 -68 -67 -68c-15.333 0 -31 6.33301 -47 19c-12 12 -19 28.333 -21 49zM311 779.999c0 36.667 22.667 59.332 68 67.999c34 0 56.333 -22.667 67 -68
c0 -45.333 -22.333 -67.666 -67 -66.999c-15.333 0 -31 6 -47 18c-12 12 -19 28.333 -21 49z" />
    <glyph glyph-name="oslash" unicode="&#xf8;" horiz-adv-x="1019" 
d="M72 422c0 122.667 41.666 225.668 124.999 309.001c84.667 84.667 188.334 127 311.001 127c79.333 0 153 -19.667 221 -59l82 116l74 -49l-84 -121c95.333 -86.667 143 -194.334 143 -323.001c0 -122.667 -41.667 -225.667 -125 -309
c-84.667 -84.667 -188.334 -127 -311.001 -127c-75.333 0 -144.333 17 -207 51l-76 -109l-69 52l73 106c-105.333 86 -157.666 198 -156.999 336zM153.999 422.001c0 -108 40.667 -197.333 122 -268l406 577c-56 30 -114 45 -174 45c-98 0 -181.333 -34 -250 -102
c-69.333 -69.333 -104 -153.333 -104 -252zM349.999 104.001l37 -16l39 -12l82 -8c98 0 181.333 34 250 102c69.333 70 104 154 104 252c0 102.667 -36 188 -108 256z" />
    <glyph glyph-name="ugrave" unicode="&#xf9;" horiz-adv-x="878" 
d="M125 317l-0.000976562 528.999h84v-529c0 -80.667 17.667 -142.667 53 -186c36.667 -44 95.334 -65.667 176.001 -65c157.333 0 236 83.667 236 251v529h82v-529c0 -104 -27.333 -185 -82 -243c-56 -60 -134.667 -90 -236 -90c-100 0 -177.167 29.333 -231.5 88
s-81.5 140.334 -81.5 245.001zM179.999 1233l45 49l275 -274l-51 -47z" />
    <glyph glyph-name="uacute" unicode="&#xfa;" horiz-adv-x="878" 
d="M125 317l-0.000976562 528.999h84v-529c0 -80.667 17.667 -142.667 53 -186c36.667 -44 95.334 -65.667 176.001 -65c157.333 0 236 83.667 236 251v529h82v-529c0 -104 -27.333 -185 -82 -243c-56 -60 -134.667 -90 -236 -90c-100 0 -177.167 29.333 -231.5 88
s-81.5 140.334 -81.5 245.001zM398.999 1008l275 274l45 -49l-270 -272z" />
    <glyph glyph-name="ucircumflex" unicode="&#xfb;" horiz-adv-x="878" 
d="M125 317l-0.000976562 528.999h84v-529c0 -80.667 17.667 -142.667 53 -186c36.667 -44 95.334 -65.667 176.001 -65c157.333 0 236 83.667 236 251v529h82v-529c0 -104 -27.333 -185 -82 -243c-56 -60 -134.667 -90 -236 -90c-100 0 -177.167 29.333 -231.5 88
s-81.5 140.334 -81.5 245.001zM192.999 1016l247 246l248 -246l-43 -45l-205 203l-204 -203z" />
    <glyph glyph-name="udieresis" unicode="&#xfc;" horiz-adv-x="878" 
d="M125 317l-0.000976562 528.999h84v-529c0 -80.667 17.667 -142.667 53 -186c36.667 -44 95.334 -65.667 176.001 -65c157.333 0 236 83.667 236 251v529h82v-529c0 -104 -27.333 -185 -82 -243c-56 -60 -134.667 -90 -236 -90c-100 0 -177.167 29.333 -231.5 88
s-81.5 140.334 -81.5 245.001zM228.999 1065c0 36.667 22.666 59.333 67.999 68c34.667 0 57.334 -22.667 68.001 -68c0 -45.333 -22.667 -68 -68 -68c-15.333 0 -31 6.33301 -47 19c-12 12 -19 28.333 -21 49zM509.998 1065c0 36.667 22.667 59.333 68 68
c34 0 56.333 -22.667 67 -68c0 -45.333 -22.333 -68 -67 -68c-15.333 0 -31.333 6.33301 -48 19c-12 12 -18.667 28.333 -20 49z" />
    <glyph glyph-name="yacute" unicode="&#xfd;" 
d="M102 731c0 221.333 69.667 401.665 209 540.998c140.667 140.667 321.667 211 543 211c151.333 0 287.333 -35.667 408 -107l84 119l75 -47l-86 -123c182 -143.333 273 -341.333 273 -594c0 -221.333 -70.333 -401.666 -211 -540.999
c-140.667 -140.667 -321.667 -210.667 -543 -210c-140.667 0 -271 32.667 -391 98l-82 -119l-74 49l82 119c-94 68 -165.667 156.667 -215 266c-48 106.667 -72 219.334 -72 338.001zM186 730.999c0 -114.667 22.001 -217.668 66.001 -309.001c42 -90 104 -165 186 -225
l776 1110c-112 62.667 -232 94 -360 94c-196.667 0 -356.334 -63 -479.001 -189c-125.333 -125.333 -188.333 -285.666 -189 -480.999zM471.001 849.998c0 45.333 17 85 51 119s73.667 51 119 51s85 -17 119 -51s51 -73.667 51 -119s-17 -85 -51 -119s-73.667 -51 -119 -51
s-85 17 -119 51s-51 73.667 -51 119zM512.001 146.998c105.333 -56 219.334 -84 342.001 -84c196.667 0 357.667 61.667 483 185c124 124 186.333 285 187 483v33c-8 -12 -17 -23 -27 -33c-34 -34 -73.667 -51 -119 -51s-85 17 -119 51s-51 73.667 -51 119
s17.167 85 51.5 119s73.833 51 118.5 51c39.333 0 74.333 -13 105 -39c-36.667 106.667 -102.334 198 -197.001 274zM514.002 851.998c0 -32.667 13 -62 39 -88s55.333 -39 88 -39s62 13 88 39s39 55.333 39 88s-13 62 -39 88s-55.333 39 -88 39s-62 -13 -88 -39
s-39 -55.333 -39 -88zM616.002 816.998c0 12 4.5 22.501 13.5 31.501s19.833 13.5 32.5 13.5c12 0 22.5 -4.33301 31.5 -13s13.5 -19.334 13.5 -32.001c0 -12 -4.5 -22.5 -13.5 -31.5s-19.5 -13.5 -31.5 -13.5s-22.667 4.5 -32 13.5s-14 19.5 -14 31.5zM821.002 308.999
l43.001 48.999c53.333 -53.333 115.666 -79.666 186.999 -78.999c65.333 0 123.333 25 174 75l37 -45c-52 -60 -125.333 -90 -220 -90c-91.333 0 -165 30 -221 90zM1251 851.998c0 -32.667 13 -62 39 -88s55.333 -39 88 -39s62 13 88 39s39 55.333 39 88s-13 62 -39 88
s-55.333 39 -88 39s-62 -13 -88 -39s-39 -55.333 -39 -88zM1356 810.998c0 12 4.33203 22.5 12.999 31.5s19.334 13.5 32.001 13.5c12 0 22.5 -4.5 31.5 -13.5s13.5 -19.5 13.5 -31.5s-4.5 -22.5 -13.5 -31.5s-19.5 -13.5 -31.5 -13.5s-22.5 4.5 -31.5 13.5
s-13.5 19.5 -13.5 31.5z" />
    <glyph glyph-name="thorn" unicode="&#xfe;" horiz-adv-x="1050" 
d="M131 -397l0.000976562 1913h84v-830c87.333 114.667 203.333 172 348 172c122.667 0 225.667 -41.667 309 -125c84.667 -84.667 127 -188.334 127 -311.001s-41.667 -225.667 -125 -309c-84.667 -84.667 -188.334 -127 -311.001 -127
c-140.667 0 -256.667 57.333 -348 172v-555h-84zM209.001 422.001c0 -96.667 34.832 -179.834 104.499 -249.501s152.834 -104.5 249.501 -104.5c98 0 181.333 34 250 102c70 70 105 154 105 252c0 96.667 -34.833 179.834 -104.5 249.501s-153.167 104.5 -250.5 104.5
c-98 0 -181.333 -34 -250 -102c-69.333 -69.333 -104 -153.333 -104 -252z" />
    <glyph glyph-name="ydieresis" unicode="&#xff;" horiz-adv-x="911" 
d="M57 846h90l316 -668l311 668h92l-577 -1243h-94l219 475zM262 1065c0 36.667 22.667 59.333 68 68c34 0 56.333 -22.667 67 -68c0 -45.333 -22.333 -68 -67 -68c-15.333 0 -31 6.33301 -47 19c-12 12 -19 28.333 -21 49zM543 1065c0 36.667 22.332 59.333 66.999 68
c34.667 0 57.334 -22.667 68.001 -68c0 -45.333 -22.667 -68 -68 -68c-15.333 0 -31 6.33301 -47 19c-12 12 -18.667 28.333 -20 49z" />
    <glyph glyph-name="OE" unicode="&#x152;" horiz-adv-x="2351" 
d="M102 731c0 221.333 69.666 401.667 208.999 541c140.667 140.667 321.667 211 543 211c144.667 0 275 -32.333 391 -97c121.333 -68 214.333 -164.667 279 -290v366h702v-84h-618v-532h618v-90h-618v-672h618v-84h-702v367c-66.667 -126.667 -159.667 -223.667 -279 -291
c-112 -64 -242.333 -96 -391 -96c-221.333 0 -401.666 69.333 -540.999 208c-140.667 140.667 -211 321.667 -211 543zM185.999 731.001c0 -195.333 62.334 -355 187.001 -479c125.333 -125.333 285.666 -188.333 480.999 -189c196.667 0 357.667 61.667 483 185
c124.667 124 187 285 187 483c0 196.667 -62.333 357 -187 481c-125.333 125.333 -286.333 188.333 -483 189c-194 0 -353.833 -62.833 -479.5 -188.5s-188.5 -286.167 -188.5 -481.5z" />
    <glyph glyph-name="oe" unicode="&#x153;" horiz-adv-x="1808" 
d="M72 422c0 122.667 41.666 225.665 124.999 308.998c84.667 84.667 188.334 127 311.001 127c83.333 0 159.666 -22.333 228.999 -67c70.667 -46.667 125.334 -107.667 164.001 -183c34 78 87.167 138.833 159.5 182.5s153.166 65.5 242.499 65.5
c124 0 227.667 -38.333 311 -115c83.333 -75.333 125 -175.666 125 -300.999h-793c0 -114.667 30.667 -205.334 92 -272.001c64 -68 152.333 -102 265 -102c57.333 0 109 9.33301 155 28c58.667 24.667 111.334 74.667 158.001 150l76 -35
c-53.333 -101.333 -135.333 -169.666 -246 -204.999c-42 -13.333 -89.667 -20 -143 -20c-87.333 0 -167.333 21.667 -240 65c-70.667 45.333 -124.667 107.666 -162 186.999c-35.333 -78 -88 -139 -158 -183c-72.667 -45.333 -151 -67.666 -235 -66.999
c-122.667 0 -225.667 41.667 -309 125c-84.667 84.667 -127 188.334 -127 311.001zM153.999 421.998c0 -96.667 34.6689 -179.834 104.002 -249.501s152.666 -104.5 249.999 -104.5c98 0 181.333 34 250 102c69.333 70 104 154 104 252
c0 96.667 -34.833 179.834 -104.5 249.501s-152.834 104.5 -249.501 104.5c-98 0 -181.333 -34 -250 -102c-69.333 -69.333 -104 -153.333 -104 -252zM958.001 519.998l687 -0.000976562c-13.333 62.667 -45 117.334 -95 164.001c-64 60 -146.333 90 -247 90
c-174.667 0 -289.667 -84.667 -345 -254z" />
    <glyph glyph-name="Ydieresis" unicode="&#x178;" horiz-adv-x="1046" 
d="M68 1462h96l360 -633l365 633h96l-418 -731v-731h-84v731zM309 1630c0 36.667 22.667 59.332 68 67.999c34 0 56.333 -22.667 67 -68c0 -45.333 -22.333 -67.666 -67 -66.999c-15.333 0 -31 6 -47 18c-12 12 -19 28.333 -21 49zM590 1630
c0 36.667 22.332 59.332 66.999 67.999c34.667 0 57.334 -22.667 68.001 -68c0 -45.333 -22.667 -67.666 -68 -66.999c-15.333 0 -31 6 -47 18c-12 12 -18.667 28.333 -20 49z" />
    <glyph glyph-name="circumflex" unicode="&#x2c6;" horiz-adv-x="774" 
d="M147 1016l246 246l246 -246l-41 -45l-205 203l-205 -203z" />
    <glyph glyph-name="tilde" unicode="&#x2dc;" horiz-adv-x="866" 
d="M115 1051c38 69.333 102.668 104 194.001 104c34 0 69.667 -6.66699 107 -20c5.33301 -2.66699 10.666 -5.5 15.999 -8.5l19 -10.5l59 -24l72 -9h47l24 9c10.667 4 30.667 20.333 60 49l59 -45l-39 -41l-33 -27c-31.333 -19.333 -68 -29 -110 -29
c-64 0 -116.667 12.333 -158 37l-59 25c-19.333 8 -44 12 -74 12c-50.667 0 -93 -22.333 -127 -67z" />
    <glyph glyph-name="uni2000" unicode="&#x2000;" horiz-adv-x="924" 
 />
    <glyph glyph-name="uni2001" unicode="&#x2001;" horiz-adv-x="1849" 
 />
    <glyph glyph-name="uni2002" unicode="&#x2002;" horiz-adv-x="924" 
 />
    <glyph glyph-name="uni2003" unicode="&#x2003;" horiz-adv-x="1849" 
 />
    <glyph glyph-name="uni2004" unicode="&#x2004;" horiz-adv-x="616" 
 />
    <glyph glyph-name="uni2005" unicode="&#x2005;" horiz-adv-x="462" 
 />
    <glyph glyph-name="uni2006" unicode="&#x2006;" horiz-adv-x="308" 
 />
    <glyph glyph-name="uni2007" unicode="&#x2007;" horiz-adv-x="308" 
 />
    <glyph glyph-name="uni2008" unicode="&#x2008;" horiz-adv-x="231" 
 />
    <glyph glyph-name="uni2009" unicode="&#x2009;" horiz-adv-x="369" 
 />
    <glyph glyph-name="uni200A" unicode="&#x200a;" horiz-adv-x="102" 
 />
    <glyph glyph-name="uni2010" unicode="&#x2010;" horiz-adv-x="555" 
d="M37 500v84h432v-84h-432z" />
    <glyph glyph-name="uni2011" unicode="&#x2011;" horiz-adv-x="555" 
d="M37 500v84h432v-84h-432z" />
    <glyph glyph-name="figuredash" unicode="&#x2012;" horiz-adv-x="555" 
d="M37 500v84h432v-84h-432z" />
    <glyph glyph-name="endash" unicode="&#x2013;" horiz-adv-x="761" 
d="M86 500v84h596v-84h-596z" />
    <glyph glyph-name="emdash" unicode="&#x2014;" horiz-adv-x="1263" 
d="M106 500v84h1065v-84h-1065z" />
    <glyph glyph-name="quoteleft" unicode="&#x2018;" horiz-adv-x="333" 
d="M117 1155v240c0 45.333 12.333 77.333 37 96h41c-24.667 -27.333 -37 -59.333 -37 -96v-92h67v-148h-108z" />
    <glyph glyph-name="quoteright" unicode="&#x2019;" horiz-adv-x="323" 
d="M129 1360v147h109v-239c0 -34 -12.333 -66.333 -37 -97h-41c24.667 26 37 58.333 37 97v92h-68z" />
    <glyph glyph-name="quotesinglbase" unicode="&#x201a;" horiz-adv-x="323" 
d="M129 123v146.999h109v-239c0 -19.333 -3.66699 -37.333 -11 -54c-4 -19.333 -12.667 -33.666 -26 -42.999h-41c24.667 26 37 58.333 37 97v92h-68z" />
    <glyph glyph-name="quotedblleft" unicode="&#x201c;" horiz-adv-x="585" 
d="M125 1155v240c0 45.333 12.333 77.333 37 96h41c-24.667 -27.333 -37 -59.333 -37 -96v-92h67v-148h-108zM360 1155v240c0 45.333 12.333 77.333 37 96h41c-24.667 -27.333 -37 -59.333 -37 -96v-92h68v-148h-109z" />
    <glyph glyph-name="quotedblright" unicode="&#x201d;" horiz-adv-x="616" 
d="M135 1360v147h109v-239c0 -34 -12.333 -66.333 -37 -97h-41c24.667 26 37 58.333 37 97v92h-68zM371 1360v147h108v-239c0 -34 -12.333 -66.333 -37 -97h-41c24.667 26 37 58.333 37 97v92h-67z" />
    <glyph glyph-name="quotedblbase" unicode="&#x201e;" horiz-adv-x="616" 
d="M135 123v146.999h109v-239c0 -19.333 -3.66699 -37.333 -11 -54c-4 -19.333 -12.667 -33.666 -26 -42.999h-41c24.667 26 37 58.333 37 97v92h-68zM371 122.999v146.999h108v-239c0 -19.333 -3.33301 -37.333 -10 -54c-4 -19.333 -13 -33.666 -27 -42.999h-41
c24.667 26 37 58.333 37 97v92h-67z" />
    <glyph glyph-name="bullet" unicode="&#x2022;" horiz-adv-x="602" 
d="M98 672c0 45.333 16.333 85.666 49 120.999c34 32.667 74.333 49 121 49c48 0 88.333 -16.333 121 -49c32.667 -35.333 49 -75.666 49 -120.999c0 -48 -16.333 -88.333 -49 -121s-73 -49 -121 -49c-46.667 0 -87 16.333 -121 49c-32.667 32.667 -49 73 -49 121z" />
    <glyph glyph-name="ellipsis" unicode="&#x2026;" horiz-adv-x="856" 
d="M-8 55c0 36.667 22.332 59.332 66.999 67.999c34.667 0 57.334 -22.667 68.001 -68c0 -45.333 -22.667 -67.666 -68 -66.999c-15.333 0 -31 6 -47 18c-12 12 -18.667 28.333 -20 49zM284.999 54.998c0 36.667 22.332 59.332 66.999 67.999
c34.667 0 57.334 -22.667 68.001 -68c0 -45.333 -22.667 -67.666 -68 -66.999c-15.333 0 -31 6 -47 18c-12 12 -18.667 28.333 -20 49zM577.998 54.9961c0 36.667 22.332 59.332 66.999 67.999c34.667 0 57.334 -22.667 68.001 -68c0 -45.333 -22.667 -67.666 -68 -66.999
c-15.333 0 -31 6 -47 18c-12 12 -18.667 28.333 -20 49z" />
    <glyph glyph-name="uni202F" unicode="&#x202f;" horiz-adv-x="369" 
 />
    <glyph glyph-name="guilsinglleft" unicode="&#x2039;" horiz-adv-x="575" 
d="M53 522l385 387l43 -43l-346 -344l338 -336l-43 -43z" />
    <glyph glyph-name="guilsinglright" unicode="&#x203a;" horiz-adv-x="575" 
d="M92 866l41 43l387 -387l-379 -379l-41 43l336 336z" />
    <glyph glyph-name="uni205F" unicode="&#x205f;" horiz-adv-x="462" 
 />
    <glyph glyph-name="Euro" unicode="&#x20ac;" horiz-adv-x="1437" 
d="M2 559l0.00292969 81.999h125c-1.33301 15.333 -2.33301 30.5 -3 45.5s-1 29.833 -1 44.5v39c0 13.333 0.666992 26.333 2 39h-123v84h135c26 148.667 91 275 195 379c140.667 140.667 321.334 211 542.001 211c125.333 0 238.666 -18.667 339.999 -56
c60 -23.333 118.333 -56.666 175 -99.999v-104c-57.333 48 -120.333 86 -189 114c-104 42 -212.667 63.333 -326 64c-196.667 0 -356.334 -63 -479.001 -189c-90 -88.667 -147.333 -195 -172 -319h1139v-84h-1151c-1.33301 -12 -2.33301 -24.5 -3 -37.5s-1 -26.5 -1 -40.5
c0 -15.333 0.333008 -30.333 1 -45s1.66699 -29.667 3 -45h1151v-82h-1137c27.333 -120 83.333 -222.333 168 -307c125.333 -125.333 285.666 -188.333 480.999 -189c121.333 0 227.333 22 318 66c52 26 117.667 67.667 197 125v-96l-99 -72
c-76.667 -56 -180.334 -90 -311.001 -102c-15.333 -1.33301 -31.833 -2.33301 -49.5 -3s-36.167 -1 -55.5 -1c-221.333 0 -401.333 69.333 -540 208c-104 104 -169 227.667 -195 371h-137z" />
    <glyph glyph-name="trademark" unicode="&#x2122;" horiz-adv-x="690" 
d="M80 1434v12h223v-12h-104v-316h-15v316h-104zM293 1120l74 330l104 -303l107 303l67 -330h-14l-58 283l-102 -299l-102 299l-62 -283h-14z" />
    <glyph glyph-name="uni25FC" unicode="&#x25fc;" horiz-adv-x="849" 
d="M0 0v850h850v-850h-850z" />
    </font>
</defs>
</svg>
