<?xml version="1.0" encoding="iso-8859-1"?>
<!-- Generator: Adobe Illustrator 16.0.0, SVG Export Plug-In . SVG Version: 6.00 Build 0)  -->
<!DOCTYPE svg PUBLIC "-//W3C//DTD SVG 1.1//EN" "http://www.w3.org/Graphics/SVG/1.1/DTD/svg11.dtd">
<svg version="1.1" id="Layer_1" xmlns="http://www.w3.org/2000/svg" xmlns:xlink="http://www.w3.org/1999/xlink" x="0px" y="0px"
	 width="64px" height="52px" viewBox="0 0 64 52" style="enable-background:new 0 0 64 52;" xml:space="preserve">
<path d="M29.977,51.707c-0.531-0.021-0.954-0.3-1.069-0.854c-0.115-0.553-2.445-11.758-2.445-11.758
	c-0.047-0.246,0.401-0.851,0.623-0.853l4.367-0.156c10.643-0.021,21.281,0.063,31.921,0.156c0.222,0.002,0.67,0.606,0.623,0.853
	c-0.765,3.926-1.571,7.844-2.446,11.745c-0.08,0.363-0.693,0.856-1.068,0.865c-5.963,0.122-11.928,0.213-17.894,0.229
	C42.588,51.938,30.507,51.729,29.977,51.707z M33.92,7.017c-1.994,1.219-4.547,2.581-4.935,5.608
	c-0.4,3.127,6.404,4.687,9.705,6.076c3.515,1.481,7.102,2.848,9.848,5.655c0.262,0.269,0.398,0.895,0.283,1.256
	c-0.504,1.583-1.135,3.125-1.697,4.69c-0.467,1.3,0.27,2.222,1.662,2.069c0.484-0.055,0.966-0.191,1.427-0.354
	c4.894-1.699,8.334-5.097,10.886-9.488c1.164-2.006,0.965-4.026-0.287-5.934c-1.582-2.412-3.955-3.607-6.677-4.245
	c-3.108-0.728-6.219-1.439-9.313-2.213c-2.944-0.733-2.83-2.588-2.28-4.596c0.313-1.146,0.911-2.216,1.401-3.31
	c0.283-0.635,0.607-1.252,1.119-2.294C41.08,2.477,37.536,4.807,33.92,7.017z M23.872,42.129c-0.216-2.123-1.223-2.902-3.394-3.221
	c-5.927-0.866-11.346-1.764-16.991-2.811C1.55,35.74,1.07,37.188,0,38.271c0.528,0.113,0.906,0.201,1.286,0.275
	c6.36,1.243,12.724,2.465,19.072,3.77c0.428,0.09,1.038,0.789,1.041,1.207c0.013,1.854,0.801,2.529,2.581,2.088
	c0.175-0.043,0.36-0.049,0.713-0.094C24.395,44.327,23.986,43.244,23.872,42.129z"/>
</svg>
