<?xml version="1.0" encoding="iso-8859-1"?>
<!-- Generator: Adobe Illustrator 16.0.0, SVG Export Plug-In . SVG Version: 6.00 Build 0)  -->
<!DOCTYPE svg PUBLIC "-//W3C//DTD SVG 1.1//EN" "http://www.w3.org/Graphics/SVG/1.1/DTD/svg11.dtd">
<svg version="1.1" id="Layer_1" xmlns="http://www.w3.org/2000/svg" xmlns:xlink="http://www.w3.org/1999/xlink" x="0px" y="0px"
	 width="64px" height="64px" viewBox="0 0 64 64" style="enable-background:new 0 0 64 64;" xml:space="preserve">
<path d="M63.128,26.804c-2.46-0.59-4.917-1.19-7.386-1.744c-0.509-0.114-0.813-0.302-0.971-0.813
	c-0.429-1.382-0.934-2.743-1.323-4.136c-0.09-0.324,0.051-0.843,0.279-1.103c1.259-1.434,2.579-2.813,3.875-4.215
	c0.239-0.258,0.462-0.531,0.761-0.877c-2.852-2.783-5.637-5.503-8.465-8.265c-1.517,1.314-2.982,2.444-4.275,3.745
	c-1.096,1.102-2.15,1.559-3.59,0.735c-0.446-0.255-0.984-0.431-1.494-0.478c-1.575-0.146-2.009-1.046-2.183-2.522
	C38.072,4.726,37.501,2.355,37.058,0c-3.911,0-7.637,0-11.529,0c0,2.752-0.016,5.417,0.011,8.081
	c0.007,0.636-0.229,0.937-0.828,1.118c-1.132,0.34-2.281,0.669-3.348,1.165c-1.072,0.497-1.889,0.398-2.72-0.453
	c-0.546-0.559-1.23-0.985-1.86-1.46c-1.174-0.887-2.352-1.766-3.601-2.702c-2.606,2.742-5.137,5.407-7.719,8.123
	c1.459,1.847,3.034,3.871,4.651,5.862c0.372,0.456,0.409,0.82,0.145,1.325c-0.471,0.904-0.833,1.868-1.345,2.746
	c-0.236,0.407-0.666,0.837-1.096,0.972c-2.287,0.72-4.597,1.369-6.91,1.998c-0.603,0.164-0.856,0.417-0.855,1.073
	C0.062,31.007,0.02,34.169,0,37.331c-0.001,0.22,0.044,0.44,0.074,0.718c0.405,0.03,0.759,0.062,1.114,0.08
	c1.674,0.083,3.347,0.214,5.022,0.224c0.986,0.005,1.645,0.454,2.093,1.226c0.709,1.221,1.311,2.504,2.022,3.725
	c0.329,0.566,0.2,0.93-0.189,1.383c-1.456,1.699-2.879,3.426-4.31,5.147c-0.201,0.241-0.377,0.503-0.673,0.901
	c2.842,2.698,5.622,5.337,8.441,8.012c0.074-0.062,0.278-0.223,0.47-0.396c1.488-1.347,3.01-2.659,4.444-4.063
	c0.69-0.676,1.261-0.828,2.135-0.34c1.261,0.704,2.575,1.33,3.914,1.872c0.851,0.345,1.086,0.845,1.061,1.722
	c-0.063,2.1-0.02,4.203-0.02,6.459c4.173-0.146,8.156-0.287,12.199-0.429c0.194-2.239,0.406-4.298,0.534-6.364
	c0.045-0.728,0.334-1.108,0.98-1.398c1.198-0.54,2.383-1.123,3.527-1.769c0.657-0.371,1.105-0.263,1.664,0.19
	c1.764,1.429,3.571,2.803,5.365,4.194c0.199,0.154,0.421,0.276,0.633,0.414c-0.067-0.099-0.134-0.196-0.2-0.294
	c2.439-2.302,4.865-4.619,7.331-6.893c0.579-0.533,0.504-0.908,0.08-1.478c-1.378-1.846-2.686-3.745-4.063-5.592
	c-0.372-0.499-0.385-0.885-0.094-1.418c0.76-1.385,1.484-2.791,2.179-4.209c0.265-0.54,0.591-0.797,1.213-0.76
	c0.918,0.055,1.841,0.041,2.762,0.044c1.372,0.006,2.743,0.001,4.106,0.001c0.065-0.288,0.117-0.411,0.118-0.534
	c0.022-3.359,0.024-6.718,0.069-10.076C64.009,26.954,63.568,26.909,63.128,26.804z M31.75,43.269
	c-6.216,0-11.255-5.045-11.255-11.269s5.039-11.269,11.255-11.269c6.217,0,11.256,5.045,11.256,11.269S37.967,43.269,31.75,43.269z"
	/>
</svg>
