<?xml version="1.0" encoding="iso-8859-1"?>
<!-- Generator: Adobe Illustrator 16.0.0, SVG Export Plug-In . SVG Version: 6.00 Build 0)  -->
<!DOCTYPE svg PUBLIC "-//W3C//DTD SVG 1.1//EN" "http://www.w3.org/Graphics/SVG/1.1/DTD/svg11.dtd">
<svg version="1.1" id="Layer_1" xmlns="http://www.w3.org/2000/svg" xmlns:xlink="http://www.w3.org/1999/xlink" x="0px" y="0px"
	 width="42px" height="64px" viewBox="0 0 42 64" style="enable-background:new 0 0 42 64;" xml:space="preserve">
<path d="M38.198,24.832c-2.676,3.423-7.722,9.897-7.722,9.897s-0.765,25.889-0.739,26.168c0.306-0.085,7.976-2.705,11.538-3.997
	C41.6,56.782,42.002,56.272,42,55.95c-0.051-4.408-0.1-8.817-0.344-13.215c-0.03-0.567-1.21-1.021-1.756-1.621
	c-0.435-0.476-0.992-1.077-1.024-1.648C38.593,34.678,38.418,29.882,38.198,24.832z M41.244,5.334
	c-0.01-0.377-0.696-1.038-1.089-1.054c-3.051-0.126-3.04-0.088-3.156-3.194c-0.012-0.313-0.221-0.84-0.422-0.885
	c-1.684-0.379-3.253-0.465-3.299,1.985c-0.006,0.356-0.076,0.795-0.289,1.046c-0.342,0.397-0.831,0.951-1.257,0.951
	c-3.933,0.001-17.532,0.001-21.465,0c-0.426,0-0.915-0.554-1.257-0.951c-0.213-0.25-0.283-0.69-0.289-1.046
	c-0.046-2.45-1.615-2.364-3.299-1.985c-0.201,0.045-0.41,0.573-0.422,0.885C4.885,4.192,4.896,4.154,1.845,4.281
	C1.452,4.297,0.766,4.957,0.756,5.334C0.646,9.288,0.634,13.244,0.637,17.2c0,0.378,0.196,0.823,0.441,1.121
	c4.272,5.207,8.573,10.389,12.839,15.6c0.287,0.354,0.48,0.9,0.483,1.359c0.036,4.521,0.021,9.043,0.023,13.564
	c0.001,4.521-0.022,9.043,0.044,13.562c0.005,0.368,0.563,0.924,0.969,1.052c2.155,0.687,2.746,1.051,2.639-0.979
	c-0.084-1.628,0.055-7.156,0.211-7.158h5.428c0.156,0.002,0.295,5.53,0.211,7.158c-0.107,2.03,0.483,1.666,2.639,0.979
	c0.406-0.128,0.964-0.684,0.969-1.052c0.066-4.519,0.043-9.04,0.044-13.562c0.003-4.521-0.013-9.043,0.023-13.564
	c0.003-0.459,0.196-1.006,0.483-1.359c4.266-5.211,8.566-10.393,12.839-15.6c0.245-0.297,0.441-0.743,0.441-1.121
	C41.366,13.244,41.354,9.288,41.244,5.334z M23.29,27.683c-1.809,1.718-2.909,1.587-4.58,0c-1.969-1.871-8.523-10.447-8.64-13.685
	c-0.009-0.252,0.434-0.744,0.673-0.749c2.833-0.053,17.681-0.053,20.514,0c0.239,0.004,0.682,0.496,0.673,0.749
	C31.813,17.235,25.259,25.812,23.29,27.683z M3.124,39.466c-0.032,0.571-0.59,1.173-1.024,1.648c-0.546,0.6-1.726,1.054-1.756,1.621
	C0.1,47.133,0.051,51.542,0,55.95c-0.002,0.322,0.4,0.832,0.725,0.949c3.563,1.292,11.232,3.912,11.538,3.997
	c0.025-0.279-0.739-26.168-0.739-26.168s-5.046-6.474-7.722-9.897C3.582,29.882,3.407,34.678,3.124,39.466z"/>
</svg>
