<svg version="1.1" xmlns="http://www.w3.org/2000/svg" xmlns:xlink="http://www.w3.org/1999/xlink" x="0px" y="0px" width="256px"
	 height="256px" viewBox="0 0 256 256" enable-background="new 0 0 256 256" xml:space="preserve">
	<circle fill="none" stroke="#FFFFFF" stroke-width="10" stroke-miterlimit="10" cx="128" cy="128" r="115.471"/>
	<path fill="#FFFFFF" d="M128,117.043c0,7.357-31.543,19.285-43.021,19.285S61.652,104.8,61.652,98.3S76.667,83.901,93,83.901
		S128,109.686,128,117.043z"/>
	<path fill="#FFFFFF" d="M128,243.471c-63.772,0-106.854-60.721-106.854-71.635c0,0,22.104-7.836,35.854-7.836
		C101,164,139.5,213.25,128,243.471z"/>
	<path fill="#FFFFFF" d="M186.701,142c-5,4.334-16.702,37-26.368,37S135,157.666,135,138c0-13.666,8-13.568,8-29.235
		C143,93.099,120,86,120,62c0-13.476,8-49.471,8-49.471c75.333,0,107.422,68.232,107.422,73.035c0,0-4.09,43.702-13.422,53.035
		C212.667,147.933,191.701,137.666,186.701,142z"/>
</svg>
